<svg width="104" height="105" viewBox="0 0 108 119" fill="none" xmlns="http://www.w3.org/2000/svg">
<mask id="mask0_714_33" style="mask-type:luminance" maskUnits="userSpaceOnUse" x="0" y="0" width="108" height="119">
<path d="M107.566 0H0V119H107.566V0Z" fill="white"/>
</mask>
<g mask="url(#mask0_714_33)">
<path d="M13.8544 104.624C13.6784 104.063 13.1644 102.802 13.0244 101.871C12.7154 99.8094 13.7934 98.4513 14.7834 98.1403C15.8944 97.8303 16.3284 98.3883 16.7584 99.6853C17.3144 101.66 17.3764 104.248 17.1894 107.953C16.9464 113.014 14.4144 119.126 8.12042 118.999C2.68742 118.88 0.283419 115.361 0.0334193 109.992C-0.0845807 107.461 0.0964193 104.931 1.14442 101.353C1.70042 99.4373 2.19642 98.7553 3.92142 98.3883C5.27742 98.1403 5.15542 99.5584 4.84842 101.23C4.17242 104.931 3.85842 106.718 4.10842 110.917C4.35042 115.361 6.39142 117.09 8.61342 117.09C11.9464 117.154 13.4264 114.377 14.0464 110.361C14.5354 107.153 14.1664 105.61 13.8544 104.624ZM84.9184 109.007C86.2164 109.007 86.5884 110.542 86.2784 111.472C85.9684 112.396 84.8594 113.45 83.1324 113.757C82.7604 112.829 82.5744 109.007 84.9184 109.007ZM60.7924 111.099C60.7924 110.054 60.2334 109.189 59.5604 109.189C58.9984 109.189 57.7074 109.804 57.7074 111.78C57.7074 113.328 58.2574 114.062 58.5094 114.377C60.2944 113.819 60.7924 112.334 60.7924 111.099ZM41.5944 98.5114C41.5074 97.5214 40.7314 96.8473 39.6814 96.8473C38.5104 96.8473 37.4074 98.0764 37.5244 99.6204C37.5994 100.638 38.1994 101.475 39.3784 101.475C40.7314 101.476 41.7184 99.9334 41.5944 98.5114ZM51.6314 102.136C51.5244 100.41 51.1064 99.6313 50.1794 99.6953C48.9504 99.7693 48.3824 103.636 48.6334 107.701C48.7934 110.353 49.1884 110.762 49.5564 110.736C50.2364 110.695 51.8674 105.957 51.6314 102.136ZM92.5724 108.633C91.8074 111.806 89.4884 116.474 86.0284 116.474C85.2274 116.474 83.8074 116.163 83.8074 115.361C83.8074 114.496 89.2424 114.377 89.2424 110.239C89.2424 108.698 87.8234 106.535 85.7234 106.535C82.9464 106.535 80.2374 109.562 80.2374 113.758C80.2374 117.52 82.5744 118.755 84.9194 118.755C88.9944 118.755 91.4634 115.42 92.7584 112.645C93.3784 114.497 93.7424 118.755 95.2914 118.755C95.9064 118.755 96.3414 118.446 97.0824 116.782C98.9294 112.644 100.721 107.892 103.191 107.892C104.114 107.892 103.561 109.562 105.782 109.562C106.829 109.562 107.567 108.698 107.567 107.706C107.567 106.285 106.273 105.178 104.3 105.178C98.4974 105.178 97.2674 113.881 96.3404 113.881C94.7964 113.881 95.2904 106.906 94.1774 106.906C93.1894 106.905 92.7044 108.082 92.5724 108.633ZM43.2004 116.038C44.1254 116.038 45.7164 115.738 46.9684 113.733C46.2524 112.143 45.7414 108.93 45.6704 107.76C45.3024 101.777 47.6074 96.1494 50.1304 95.9934C51.9804 95.8814 53.4604 97.6324 53.6304 100.469C54.0854 107.924 51.6024 111.036 50.3594 113.721C50.5694 114.762 52.3354 116.534 54.0014 116.534C54.6164 116.534 55.3604 116.225 55.5474 115.975C55.4234 115.546 55.2974 114.991 55.2974 114.186C55.2974 109.866 58.0754 106.223 60.4834 106.223C62.3964 106.223 63.5074 108.753 63.5074 110.423C63.5074 112.395 61.8394 114.003 59.3724 115.546C59.8064 115.975 60.6044 116.287 61.2864 116.287C64.8074 116.287 66.6494 112.027 68.0134 108.137C68.2594 107.395 68.6944 106.348 69.5564 106.348C71.0374 106.348 71.6574 116.1 74.1194 116.1C75.1724 116.1 76.0344 113.938 76.0344 112.276C76.0344 111.04 75.6024 110.916 75.6024 109.126C75.6024 107.153 76.6524 105.488 78.0754 105.488C78.9384 105.488 79.2504 106.348 79.2504 107.395C79.2504 111.346 76.4074 118.692 72.2164 118.692C69.0634 118.692 69.3094 113.26 68.1994 113.26C66.9594 113.26 65.2314 118.753 59.1274 118.753C58.1354 118.753 57.0884 118.26 56.2264 117.27C54.7474 118.26 53.5094 118.692 52.0894 118.692C49.8084 118.692 48.8184 116.346 47.8954 116.346C46.7824 116.346 45.5514 118.753 41.8444 118.753C38.8824 118.753 38.3884 114.807 37.3414 114.807C36.4134 114.807 34.9944 118.753 33.4524 118.753C30.8564 118.753 30.3064 111.904 28.0184 111.904C26.2294 111.904 20.5744 118.86 19.0394 118.701C18.4224 118.637 18.1624 118.176 18.2274 117.558C18.3144 116.704 19.0494 114.418 19.3474 113.337C19.8464 111.46 20.3044 109.403 20.5604 108.747C20.8144 108.085 21.4994 107.613 22.0494 107.664C22.3264 107.69 22.4094 108.207 22.4954 108.634C22.8074 110.16 23.2424 111.716 23.7334 111.716C24.6004 111.716 27.4634 106.222 29.1294 106.222C31.1694 106.222 31.4134 114.865 34.1894 114.865C35.1174 114.865 35.7984 113.756 36.4134 112.394C36.4764 110.107 37.0934 106.843 38.9444 106.843C40.2414 106.843 40.8594 109.741 39.9304 112.275C39.9284 115.297 41.9014 116.038 43.2004 116.038Z" fill="#1766A6"/>
</g>
<path d="M86.188 19.2543C85.73 19.2543 85.074 19.2543 84.713 18.5353C84.417 17.9453 84.517 16.9943 83.96 16.5693C84.517 16.7323 85.106 16.7323 85.564 16.7323C87.04 16.7323 88.45 15.7173 89.532 15.7173C90.245 15.7173 90.475 16.1763 90.475 16.6333C90.476 18.0763 87.566 19.2543 86.188 19.2543ZM86.908 22.9553C90.311 22.9553 93.427 20.2373 93.427 17.8473C93.427 16.7323 92.901 15.8163 91.558 15.6523C91.787 15.9473 91.885 16.1763 91.885 16.7003C91.885 18.5023 89.14 20.5003 86.156 20.5003C85.074 20.5003 84.746 21.2523 84.746 21.6453C84.746 22.5633 85.632 22.9553 86.908 22.9553ZM86.647 24.3313C87.074 27.4413 91.787 31.6343 93.064 31.5353C93.918 31.4633 94.245 27.4743 94.245 24.3313C94.245 22.5303 94.344 21.1213 93.393 20.7933C91.884 23.8403 87.926 24.4623 86.647 24.3313Z" fill="#1766A6"/>
<path d="M12.9326 44.9297C14.0446 44.9297 13.8156 38.1167 15.6166 38.1167C16.0436 38.1167 16.1746 38.5427 16.1746 39.0667C16.1746 40.6057 15.4206 42.8667 15.4206 44.1097C15.4206 44.7327 15.5846 44.9297 15.8796 44.9297C16.6666 44.9297 18.0416 37.4287 19.3836 37.4287C19.8096 37.4287 20.0056 37.8547 20.0056 38.2807C20.0056 39.8527 18.0096 44.3717 18.0096 45.6487C18.0096 45.8457 18.0736 46.0087 18.2386 46.0087C19.0576 46.0087 20.6946 42.4727 21.2176 40.7047C21.5126 39.7867 21.9056 39.2947 22.2666 39.2947C22.5936 39.2947 22.8896 39.6557 22.8896 40.4097C22.8896 42.1777 21.2506 46.3367 19.8096 49.1217C18.6976 51.2827 16.9616 54.3917 16.9616 56.1277C16.9616 57.0127 17.1226 57.9287 18.4006 59.0427C16.3046 58.9117 15.4536 58.7157 14.6686 57.0787C11.1636 64.0537 21.1196 63.3667 17.7136 69.5537C17.0906 68.4427 12.1796 67.2957 12.1796 60.8117C12.1796 55.2117 17.0906 51.9367 17.0906 49.6127C17.0906 49.1547 16.9286 48.7617 16.5026 48.4017C15.4206 47.4827 15.3876 46.7317 14.5366 46.7317C13.9156 46.7317 13.1596 48.1717 13.9466 49.4487C14.2096 49.8747 14.4386 50.1367 14.4386 50.5297C14.4386 51.4457 12.9966 53.9007 11.9826 53.9007C10.9666 53.9007 10.1826 51.3827 10.1826 47.3197C10.1826 43.7157 10.9996 40.0827 12.0156 40.0827C12.3096 40.0827 12.4076 40.2787 12.4076 40.5417C12.4076 40.9677 12.2776 41.8177 12.2776 43.2587C12.2776 44.7977 12.6376 44.9297 12.9326 44.9297Z" fill="#1766A6"/>
<path d="M21.2817 54.5244C22.6587 54.5244 23.8037 53.5074 23.8037 51.2514V47.9094C23.8037 46.6324 23.9027 45.1924 24.7547 44.1754C24.6557 44.6024 24.6557 45.0604 24.6557 45.4864C24.6557 48.3034 26.2267 50.2364 26.2267 52.9534C26.2267 53.9674 25.9317 54.5254 25.1477 54.5254C24.3937 54.5254 24.4597 53.8374 24.2947 53.8374C24.1647 53.8374 23.9677 54.2624 23.9677 54.7214C23.9677 55.4094 24.4587 56.4894 25.8337 56.4894C27.0137 56.4894 27.9617 55.4094 27.9617 54.1974C27.9617 51.2524 25.6697 47.9754 25.6697 44.8324C25.6697 43.4564 26.0297 42.5404 26.3247 41.8184C26.3247 48.3364 31.8587 53.0844 31.8587 55.8014C31.8587 56.4244 31.4007 56.9164 30.7127 56.9164C29.9597 56.9164 29.5987 56.3254 29.5987 55.8664C29.5987 55.6374 29.5657 55.5724 29.4677 55.5724C29.2727 55.5724 28.6827 56.2274 28.6827 57.0804C28.6827 58.1594 29.5657 59.4714 31.2037 59.4714C33.0687 59.4714 34.0847 57.8974 34.0847 56.4894C34.0847 53.0524 27.3717 47.8444 27.3717 42.2784C27.3717 41.3274 27.5337 39.7884 28.2237 38.6104C23.9007 41.3924 22.5587 45.0944 22.5587 48.3364C22.5587 51.1534 22.4607 52.5594 21.0197 52.5594C20.2657 52.5594 20.0697 51.8734 19.8067 51.8734C19.6107 51.8734 19.5117 52.4624 19.5117 52.6254C19.5137 53.8364 20.3987 54.5244 21.2817 54.5244Z" fill="#1766A6"/>
<path d="M70.8972 17.6502C71.3132 17.3712 73.1592 17.8132 75.5462 16.6332C75.8402 16.4722 76.1352 16.4062 76.3972 16.4062C77.5452 16.4062 77.2502 17.7153 78.2992 17.7153C79.1162 17.7153 80.1672 17.0273 80.7902 17.0273C81.7662 17.0273 83.1752 20.1063 83.1752 21.5473C83.1752 23.2173 80.6582 24.2332 77.6762 24.2332C73.3232 24.2332 70.7002 20.4342 70.7002 17.9772C70.7012 17.7812 70.8002 17.7152 70.8972 17.6502ZM78.0372 21.8092C79.4792 21.8092 80.5602 21.1543 80.5602 20.7603C80.5602 20.6313 80.3642 20.5322 79.9372 20.5322C79.5112 20.5322 78.6592 20.5002 77.0532 20.2372C75.6752 20.0082 74.6272 19.4842 74.2342 19.4842C74.1032 19.4842 74.0372 19.5492 74.0372 19.6472C74.0372 20.5002 75.6112 21.8092 78.0372 21.8092Z" fill="#1766A6"/>
<path d="M21.9703 66.8697C20.8903 67.1327 19.1533 68.8327 19.1533 71.5217C19.1533 74.7287 22.5923 79.6757 28.2573 79.6757C33.0373 79.6757 34.2173 76.3677 34.2173 74.1387C34.2173 69.1947 31.1733 65.7227 27.2113 65.7227C25.0493 65.7227 23.1163 67.2947 23.1163 69.6187C23.1163 71.7827 24.7543 75.0237 28.6503 75.0237C30.4843 75.0237 31.5643 73.7117 31.5643 72.2097C31.5643 70.7347 30.2223 68.7057 28.2563 68.7057C27.6673 68.7057 27.2423 69.0947 27.2423 69.7197C27.2423 70.5037 28.3213 71.2917 29.6653 71.2917C29.9913 71.2917 30.2543 71.2257 30.3863 71.1597C30.4503 71.2607 30.4843 71.4227 30.4843 71.5537C30.4843 72.3077 29.7633 72.7667 28.6503 72.7667C26.9803 72.7667 25.3753 71.5227 25.3753 69.5537C25.3753 68.3777 26.3913 67.5267 27.8643 67.5267C30.7783 67.5267 32.5133 70.1127 32.5133 72.7017C32.5133 75.0247 31.2383 76.3697 28.6173 76.3697C23.3773 76.3687 20.8253 71.6517 21.9703 66.8697Z" fill="#1766A6"/>
<path d="M59.3531 86.0577C60.9241 86.0577 60.8421 85.9268 61.3341 85.9268C61.8241 85.9268 61.8581 86.2217 61.8581 86.4187C61.8581 87.1397 60.2521 88.0238 57.4031 88.0238C55.7331 88.0238 54.7171 87.1387 54.4231 86.1567C52.7861 87.2047 50.2981 88.1547 47.8411 88.1547C41.1291 88.1547 39.4261 85.2377 37.3291 84.2907C35.7241 83.5697 33.2681 84.9788 29.8291 81.1468C30.2881 81.2458 30.9111 81.2777 31.4021 81.2777C34.4131 81.2777 36.0181 79.8067 36.0181 77.4467C36.0181 77.1507 35.9851 76.8267 35.9521 76.5327C36.8701 76.8927 38.9671 78.4628 39.4591 81.2458C39.5231 81.5738 40.8651 81.8677 41.7171 81.8677C42.8971 81.8677 44.4031 81.3757 44.6321 79.4457C48.5621 79.1187 51.2161 76.7947 51.7731 73.8438C53.1791 74.3027 54.7841 75.5797 55.1771 76.2367C55.7341 76.0407 56.3881 75.9417 57.1411 75.9417C58.1891 75.9417 59.3691 76.1388 60.7761 76.5648C60.8421 76.1388 60.9071 75.6147 61.5631 75.6147C62.5451 75.6147 62.2831 76.6958 62.6111 77.3148C62.7751 77.6428 63.5951 77.8388 63.5951 78.4948C63.5951 79.1188 63.0681 79.3487 62.7411 79.3487C62.6101 79.3487 62.4461 79.3157 62.3471 79.2837C61.6931 79.5127 61.6591 84.2257 58.9091 84.2257C56.8801 84.2257 55.0131 82.5557 54.1931 80.4617C53.9641 79.8397 53.4731 79.4457 53.0141 79.4457C52.4911 79.4457 52.1961 79.5447 51.5751 80.2327C49.8071 82.1627 46.8591 83.8327 43.2241 83.8327C42.1101 83.8327 41.2261 83.7327 40.9961 83.7327C40.8641 83.7327 40.8641 83.7657 40.8641 83.7977C40.8641 84.0277 41.9771 84.9128 44.4011 84.9128C50.1651 84.9128 51.5741 81.6697 52.4901 81.6697C52.6231 81.6697 53.0131 81.6697 53.2421 82.1947C54.5871 85.3367 57.5191 86.0577 59.3531 86.0577ZM56.8141 79.5127C56.8141 80.2337 57.4041 80.8237 58.1251 80.8237C58.8461 80.8237 59.4351 80.2337 59.4351 79.5127C59.4351 78.7907 58.8461 78.2007 58.1251 78.2007C57.4041 78.2007 56.8141 78.7907 56.8141 79.5127Z" fill="#1766A6"/>
<path d="M82.7504 63.169C82.2914 63.169 81.8004 63.53 81.8004 64.416C81.8004 65.395 82.5544 66.019 82.9794 66.214C83.2094 66.347 83.5704 66.478 83.9274 66.478C84.8784 66.478 85.6334 66.214 85.6334 65.427C85.6324 64.416 84.1564 63.169 82.7504 63.169ZM79.2174 65.198C78.5294 65.198 74.7254 70.274 72.2744 70.274C71.6854 70.274 71.1934 69.161 71.1934 68.313C71.1934 67.854 71.4874 67.526 72.5384 67.295C78.1694 66.018 76.9234 61.792 81.7334 61.792C84.3854 61.792 87.3374 63.596 87.3374 67.655C87.3374 71.978 81.1844 77.347 80.2664 77.347C79.5124 77.347 78.6934 76.267 78.6934 75.547C78.6934 75.318 78.7924 75.023 79.4474 74.761C82.5874 73.515 84.3864 70.634 84.3864 69.159C84.3864 68.831 84.2234 68.507 83.7974 68.507C83.2414 68.507 80.8574 73.941 78.2014 73.941C76.3644 73.941 74.4964 72.275 74.4964 71.487C74.4964 70.175 79.8074 67.754 79.8074 65.918C79.8064 65.229 79.4794 65.198 79.2174 65.198Z" fill="#1766A6"/>
<path d="M14.4064 22.2685C14.4064 22.2685 13.4574 22.9875 12.2784 22.9875C10.8714 22.9875 9.75734 21.9405 9.75734 20.4665C9.75734 19.4505 10.2814 18.4035 11.4924 17.8785C11.4604 18.0755 11.4604 18.2385 11.4604 18.4355C11.4594 20.3035 12.5074 21.7105 14.4064 22.2685ZM21.4144 28.5565C20.6944 29.4065 19.9404 30.8485 19.9404 32.3215C19.9404 34.0895 21.0224 35.5625 22.6924 35.5625C24.2964 35.5625 25.0504 34.1875 25.0504 32.7805C25.0504 30.5865 23.0524 29.0455 21.4144 28.5565ZM10.5434 29.8655C10.4814 29.9665 10.4444 30.0955 10.4444 30.2265C10.4444 30.5215 10.7724 30.8485 11.0654 30.8485C11.3274 30.8485 11.4914 30.7835 11.6224 30.7835C12.4074 30.7835 13.2924 31.3395 14.5694 31.3395C15.3214 31.3395 16.2064 31.1095 17.3194 30.5545C19.6774 29.3745 20.5954 26.4605 20.5954 25.9685C20.5954 25.3455 20.0954 25.4275 19.6774 24.8545C19.2594 24.2835 19.4194 23.7785 19.1534 23.5115C19.0024 23.3585 18.5324 23.3485 17.9414 23.2825C17.7444 23.2615 17.4824 23.2495 17.2204 23.2495C16.1414 23.2495 14.8604 23.3825 13.4224 24.2985C10.5824 26.1115 11.0004 29.1125 10.5434 29.8655ZM18.2384 25.8045C18.4654 26.1135 19.0914 26.4935 19.0914 26.7225C19.0914 27.1795 18.8274 27.7705 18.3044 27.7705C17.1574 27.7705 16.2414 26.0345 16.2414 25.0505C16.2414 24.4295 16.6024 24.3645 17.0924 24.3645C17.3214 24.3645 17.4204 24.3975 17.5834 24.4955C17.8774 24.6595 17.8774 25.3135 18.2384 25.8045ZM15.2244 29.8005C14.1444 29.8005 12.9654 28.4585 12.9654 27.2455C12.9654 26.5915 13.4564 25.7715 13.8164 25.7715C13.9474 25.7715 14.0134 25.8705 14.0454 26.1005C14.2414 27.7045 15.2904 28.6225 16.2734 29.0795C16.3714 29.1445 16.4374 29.1775 16.4374 29.2425C16.4374 29.4725 15.8144 29.8005 15.2244 29.8005ZM18.0094 21.5475C18.1724 21.0225 18.3034 20.3695 18.3034 19.6475C18.3034 18.0765 17.5814 15.6855 15.3554 15.6855C14.0794 15.6855 13.1604 16.7005 13.1604 17.9125C13.1604 20.5005 15.7484 21.5475 18.0094 21.5475ZM9.52734 34.6465C9.52734 37.1345 10.2814 38.3145 11.6234 38.3145C12.6714 38.3145 14.0794 37.5605 15.7484 36.1195C14.4724 36.4145 13.4884 36.6115 12.6054 36.6115C11.4264 36.6115 10.5104 36.1525 9.52734 34.6465ZM10.6744 31.7315C10.6424 31.8965 10.6424 32.0595 10.6424 32.2225C10.6424 33.7615 11.4594 34.6135 12.5404 34.6135C13.3564 34.6135 14.3084 34.1225 15.1574 33.0405C14.7994 33.1055 14.3724 33.1385 13.9794 33.1385C12.7694 33.1385 11.4594 32.8125 10.6744 31.7315ZM18.6974 31.2735C17.9424 31.4695 16.3714 32.3865 16.3714 34.0235C16.3714 35.2015 17.2874 35.9565 18.4344 35.9565C19.0244 35.9565 19.4494 35.8245 19.7114 35.6285C18.7954 34.7445 18.4674 33.7615 18.4674 32.7805C18.4674 32.0915 18.5654 31.6665 18.6974 31.2735ZM19.8754 22.3005C19.8754 23.0205 20.4644 23.6115 21.1844 23.6115C21.9054 23.6115 22.4954 23.0215 22.4954 22.3005C22.4954 21.5805 21.9054 20.9895 21.1844 20.9895C20.4644 20.9895 19.8754 21.5805 19.8754 22.3005ZM21.5774 25.2475C21.5774 25.9685 22.1684 26.5585 22.8904 26.5585C23.6094 26.5585 24.1994 25.9685 24.1994 25.2475C24.1994 24.5285 23.6094 23.9385 22.8904 23.9385C22.1674 23.9385 21.5774 24.5285 21.5774 25.2475Z" fill="#1766A6"/>
<path d="M72.6676 41.3262C72.6676 40.6722 73.2576 40.1152 73.9046 40.1152C74.6266 40.1152 75.1836 40.6722 75.1836 41.3262C75.1836 42.0792 74.6256 42.6042 73.9046 42.6042C73.2576 42.6042 72.6676 42.0792 72.6676 41.3262ZM61.1696 31.2402C61.1696 31.9602 61.7606 32.5502 62.4786 32.5502C63.2016 32.5502 63.7916 31.9602 63.7916 31.2402C63.7916 30.5212 63.2006 29.9312 62.4786 29.9312C61.7606 29.9312 61.1696 30.5212 61.1696 31.2402ZM60.0576 35.8572C60.0576 36.8732 60.9066 37.7232 61.9236 37.7232C62.9376 37.7232 63.7916 36.8732 63.7916 35.8572C63.7916 34.8432 62.9376 33.9902 61.9236 33.9902C60.9066 33.9902 60.0576 34.8432 60.0576 35.8572ZM64.1846 33.7612C64.1846 34.8762 65.0696 35.7592 66.1766 35.7592C67.2896 35.7592 68.1776 34.8762 68.1776 33.7612C68.1776 32.6482 67.2896 31.7642 66.1766 31.7642C65.0696 31.7642 64.1846 32.6482 64.1846 33.7612ZM64.3496 29.5042C64.3496 30.1932 64.9066 30.7512 65.5876 30.7512C66.2756 30.7512 66.8326 30.1932 66.8326 29.5042C66.8326 28.8182 66.2746 28.2612 65.5876 28.2612C64.9066 28.2612 64.3496 28.8182 64.3496 29.5042ZM70.2746 26.3622C70.2746 27.0482 70.8316 27.6052 71.5206 27.6052C72.2086 27.6052 72.7666 27.0482 72.7666 26.3622C72.7666 25.6732 72.2086 25.1162 71.5206 25.1162C70.8316 25.1162 70.2746 25.6732 70.2746 26.3622ZM67.8166 30.3902C67.8166 31.5352 68.7666 32.4842 69.9136 32.4842C71.0616 32.4842 72.0126 31.5352 72.0126 30.3902C72.0126 29.2422 71.0626 28.2942 69.9136 28.2942C68.7666 28.2942 67.8166 29.2422 67.8166 30.3902ZM64.4466 38.0522C64.4466 38.7732 65.0366 39.3612 65.7516 39.3612C66.4726 39.3612 67.0636 38.7732 67.0636 38.0522C67.0636 37.3312 66.4726 36.7422 65.7516 36.7422C65.0366 36.7422 64.4466 37.3312 64.4466 38.0522ZM68.7346 35.4312C68.7346 36.1522 69.3236 36.7422 70.0466 36.7422C70.7666 36.7422 71.3566 36.1522 71.3566 35.4312C71.3566 34.7122 70.7666 34.1222 70.0466 34.1222C69.3236 34.1222 68.7346 34.7122 68.7346 35.4312ZM67.5226 40.0492C67.5226 41.2932 68.5376 42.3092 69.7836 42.3092C71.0286 42.3092 72.0466 41.2932 72.0466 40.0492C72.0466 38.8052 71.0286 37.7892 69.7836 37.7892C68.5376 37.7892 67.5226 38.8052 67.5226 40.0492ZM72.2406 37.2642C72.2406 38.1172 72.9296 38.8052 73.7756 38.8052C74.6276 38.8052 75.3156 38.1172 75.3156 37.2642C75.3156 36.4142 74.6276 35.7262 73.7756 35.7262C72.9296 35.7262 72.2406 36.4142 72.2406 37.2642ZM72.1426 33.1382C72.1426 33.8932 72.7666 34.5152 73.5116 34.5152C74.2666 34.5152 74.8896 33.8932 74.8896 33.1382C74.8896 32.3862 74.2666 31.7642 73.5116 31.7642C72.7666 31.7642 72.1426 32.3862 72.1426 33.1382Z" fill="#1766A6"/>
<path d="M75.4791 76.1061C74.6271 76.7621 72.6351 78.2331 69.3241 78.2331C67.5551 78.2331 66.7681 77.6761 66.5061 77.6761C66.1781 77.6761 65.8181 78.0031 65.4571 78.4301C64.6791 79.3481 63.6621 81.0511 63.6621 82.9161C63.6621 84.2251 64.6791 85.5331 66.5711 85.5331C72.7011 85.5331 77.2821 81.7031 77.2821 78.5941C77.2821 76.8271 76.2341 76.1061 75.4791 76.1061ZM73.7761 75.7461C74.0411 75.5201 74.1031 75.1571 74.1031 74.7951V74.0421C74.1031 73.0911 72.6681 72.5371 70.7011 72.5371C68.3081 72.5371 67.0301 73.6151 67.0301 74.0751V75.5811C67.0301 76.2051 68.4731 76.8271 70.2431 76.8271C71.6521 76.8271 72.9301 76.4671 73.7761 75.7461ZM73.5121 78.9881C73.6771 78.9881 73.8721 79.0851 73.8721 79.6761C73.8721 80.3951 73.5461 81.3441 72.3721 82.0961C71.5531 82.6551 70.4381 83.1141 68.8001 83.1431C69.0621 82.3601 69.2591 81.5391 69.2591 80.7571C69.2591 80.4941 69.2271 80.2971 69.1941 80.0031H69.6201C72.2091 80.0041 73.3241 78.9881 73.5121 78.9881Z" fill="#1766A6"/>
<path d="M61.006 38.9697C61.366 41.7517 65.103 40.3437 65.103 43.7157C65.103 44.2077 64.972 44.9297 64.972 45.5507C64.972 46.2717 65.036 46.8937 65.588 46.8937C66.144 46.8937 66.276 46.5017 66.276 45.9767C66.276 45.4517 66.144 44.7977 66.144 44.4377C66.144 43.2907 66.964 43.0297 67.457 43.0297C68.702 43.0297 69.652 44.3067 71.521 44.3067C71.094 46.4027 66.768 45.8457 66.768 48.1387C66.768 49.2857 67.915 49.5457 68.669 49.5457C69.357 49.5457 69.587 49.4477 69.587 48.8597C69.587 48.5307 69.521 48.1707 69.521 47.9417C69.521 47.8097 69.62 47.6787 69.784 47.6787C70.507 47.6787 74.037 50.3647 74.037 51.1847C74.037 51.9367 70.308 52.6897 69.227 52.6897C68.899 52.6897 68.833 52.4607 68.833 52.3297C68.833 52.1007 69.39 51.4127 69.39 51.0207C69.39 50.7257 68.899 50.5287 67.587 50.5287C66.964 50.5287 66.505 50.5947 66.505 51.0867C66.505 51.9687 67.947 53.0507 67.947 53.8677C67.947 54.5237 67.554 54.9167 66.505 54.9167C65.62 54.9167 64.282 54.2277 64.282 53.0827C64.282 52.1657 65.227 51.2507 65.227 50.6927C65.227 50.5287 65.102 50.2667 64.709 50.2667C63.495 50.2667 63.168 53.4747 58.876 53.8357C59.564 53.2137 60.152 52.5257 60.152 51.1197C60.152 50.4317 59.99 49.8737 59.99 49.1217C59.99 48.1387 60.447 47.6467 61.102 47.6467C62.313 47.6467 62.903 49.3487 63.692 49.3487C64.119 49.3487 64.577 48.9577 64.577 48.3677C64.577 45.8787 59.794 46.2387 59.794 42.7347C59.795 41.7847 60.121 40.6057 61.006 38.9697ZM76.626 48.5647C76.626 49.3817 76.89 50.3317 77.709 50.3317C78.397 50.3317 78.986 49.2857 78.986 48.1387C78.986 46.8287 78.757 45.8127 78.757 45.2877C78.757 45.0597 78.856 44.9617 78.986 44.9617C79.478 44.9947 79.936 46.3367 80.462 46.3367C81.052 46.3367 81.931 45.2547 82.29 45.2547C82.389 45.2547 82.421 45.3867 82.421 45.4187C82.421 45.9107 81.667 46.9927 81.667 47.4177C81.667 47.7777 83.568 47.8427 83.568 48.1707C83.568 48.6627 81.575 48.6627 80.626 49.0887C79.709 49.4807 79.149 49.9717 79.149 50.6277C79.149 51.2827 79.805 51.4127 80.723 51.4127C82.911 51.4127 84.451 50.2347 84.942 50.2347C85.04 50.2347 85.105 50.2987 85.105 50.3977C85.105 50.7257 83.992 51.8057 83.992 52.2977C83.992 52.8537 86.024 53.5067 85.991 53.8357C85.959 53.9337 85.827 53.9657 85.598 53.9657C85.236 53.9657 84.68 53.8677 84.253 53.8677C83.991 53.8677 83.762 53.8997 83.662 54.0307C83.435 54.2937 83.728 56.0297 83.272 56.0297C82.845 56.0297 81.731 52.1657 79.215 52.1657C78.854 52.1657 78.592 52.4607 78.592 52.9517C78.592 54.2607 79.87 55.7667 81.083 56.4877C81.632 56.8487 82.551 57.2087 82.551 57.4067C82.551 57.7977 80.46 57.4387 80.46 58.0927C80.46 58.6827 80.722 59.5687 80.722 60.0907C80.722 60.2547 80.689 60.4497 80.493 60.4497C80.1 60.4497 79.148 58.6497 78.69 58.6497C78.297 58.6497 77.445 59.7297 77.084 59.7297C76.986 59.7297 76.921 59.6317 76.921 59.5347C76.921 58.7807 78.134 57.0787 78.134 55.4077C78.134 54.6217 78.035 52.9187 77.084 52.9187C76.298 52.9187 75.412 54.1627 75.019 55.4077C74.791 56.1277 74.954 58.9117 74.429 58.9117C73.938 58.9117 74.069 57.0457 73.412 57.0457C72.929 57.0457 71.88 57.9287 71.519 57.9287C71.453 57.9287 71.387 57.8957 71.387 57.8307C71.387 57.4387 72.338 56.1607 72.338 55.8987C72.338 55.4077 70.175 55.3427 70.175 54.9497C70.175 54.7197 71.027 54.5567 71.813 54.4247C73.479 54.1297 75.936 52.9187 75.936 51.2167C75.936 49.3177 74.101 48.4977 72.895 47.7117C72.272 47.3187 71.584 46.9927 71.584 46.7307C71.584 46.4677 72.37 46.4677 72.698 46.4677C73.189 46.4677 73.675 46.4347 73.675 46.0427C73.675 45.7467 73.609 45.1587 73.609 44.6997C73.609 44.3717 73.641 44.1097 73.774 44.1097C74.265 44.1097 74.953 45.7137 75.282 45.7137C75.805 45.7137 76.526 44.4037 77.019 44.4037C77.181 44.4037 77.248 44.5027 77.248 44.7967C77.25 46.0087 76.626 47.3837 76.626 48.5647Z" fill="#1766A6"/>
<path d="M61.9563 57.6337C63.4643 57.8307 63.8253 58.3537 63.8253 58.7807C63.8253 59.5017 63.1693 59.7297 62.5453 59.7297C62.0883 59.7297 61.5633 59.6317 61.0063 59.6317C60.2843 59.6317 59.5653 59.7957 58.9763 60.4837C59.4013 60.5487 60.0243 60.8447 60.0243 61.5007C60.0243 63.3997 54.7523 61.8257 54.7523 66.7077C54.7523 69.2937 57.4383 72.1117 61.4973 72.1117C63.5963 72.1117 64.9393 71.4237 64.9393 70.6357C64.9393 70.0147 63.8263 70.4387 63.8263 69.9147C63.8263 69.6857 64.2193 69.2587 64.2193 68.8967C64.2193 68.7387 64.0883 68.4417 63.8263 68.4417C63.2343 68.4417 62.1203 69.3887 59.8603 69.3887C58.0913 69.3887 56.3553 68.3767 56.3553 66.9997C56.3553 66.7057 56.4873 66.5407 56.6833 66.5407C56.8803 66.5407 57.1413 66.6727 57.3713 66.6727C57.5683 66.6727 57.6003 66.5407 57.6003 66.1817C57.6003 65.8207 57.6003 64.8047 58.2213 64.8047C58.8453 64.8047 60.0243 67.0977 64.5463 67.0977C66.0473 67.0977 68.9643 66.8047 70.0463 65.8207C70.0133 69.4237 67.1933 74.1717 61.3013 74.1717C55.1773 74.1717 51.9023 69.2587 51.9023 64.7387C51.9023 59.7297 55.9943 55.1787 61.5963 55.1787C63.0353 55.1787 64.2503 55.6687 64.2503 56.2917C64.2493 57.1447 62.1193 56.6197 61.9563 57.6337ZM72.0113 59.3717C72.2403 59.7297 72.3393 60.0907 72.3393 60.4177C72.3393 61.3357 71.7163 62.1867 71.7163 63.1377C71.7163 64.2177 72.5363 65.1007 73.7753 65.1007C75.1183 65.1007 76.0363 64.0227 76.0363 62.7437C76.0363 61.0077 74.4633 59.5347 72.0113 59.3717ZM61.1693 61.4667C61.4953 61.7927 61.5953 62.1207 61.5953 62.4487C61.5953 62.9397 61.3663 63.4647 61.3663 64.0217C61.3663 64.8047 61.9563 65.4937 62.8063 65.4937C63.7253 65.4937 64.3493 64.7717 64.3493 63.9237C64.3493 62.6787 63.0673 61.4667 61.1693 61.4667ZM65.5223 55.8987C68.9633 56.5537 70.8313 59.1417 70.8313 61.5657C70.8313 63.2367 69.7833 64.7727 67.9473 64.7727C66.2753 64.7727 65.0693 63.6277 65.0693 61.7937C65.0693 60.4187 66.1433 58.9777 66.1433 57.5687C66.1433 57.0127 65.9803 56.4557 65.5223 55.8987ZM67.2263 60.2547C67.2263 60.7127 67.5543 61.0737 68.0133 61.0737C68.5363 61.0737 68.8653 60.6147 68.8653 60.0907C68.8653 59.4037 68.2423 58.4537 67.6523 58.4537C67.3893 58.4537 67.4883 58.8467 67.4233 59.2727C67.3893 59.5987 67.2263 59.9917 67.2263 60.2547Z" fill="#1766A6"/>
<path d="M31.0759 26.5576C32.1889 26.5576 33.4649 20.5316 33.4649 19.5156C33.4649 19.2536 33.3679 19.0566 33.1389 19.0566C32.1229 19.0566 30.7159 24.7886 30.7159 26.0666C30.7149 26.2956 30.7799 26.5576 31.0759 26.5576ZM39.0989 28.3586C39.9159 28.3586 40.8329 25.2136 40.8329 23.2486C40.8329 22.8226 40.7679 22.3656 40.5699 22.3656C39.8819 22.3656 38.7359 25.6076 38.7359 27.3756C38.7369 28.0636 38.9019 28.3586 39.0989 28.3586ZM33.7579 25.4436C34.1179 25.4436 34.5769 25.0486 35.4309 24.1016C35.4949 23.6756 35.4949 23.2816 35.4949 22.7906C35.4949 22.1366 35.2329 21.4156 34.8409 21.4156C33.8569 21.4156 33.3669 24.0356 33.3669 24.7246C33.3679 25.1156 33.5629 25.4436 33.7579 25.4436ZM38.2459 24.1016C38.2459 23.5436 38.1139 23.4126 37.9839 23.4126C37.6559 23.4126 37.2969 23.8066 36.7729 24.6906C36.8379 25.8696 37.0349 26.3936 37.3619 26.3936C37.7219 26.3936 38.2459 25.2466 38.2459 24.1016ZM40.7679 20.2366C42.9299 20.2366 43.9109 22.1036 43.9109 24.1996C43.9109 25.1156 43.6509 26.4596 43.2249 26.4596C42.7989 26.4596 42.8649 25.7056 42.7989 25.0176C42.7339 24.1336 42.5689 23.9376 42.2739 23.9376C41.7169 23.9376 41.3579 25.2466 41.3579 26.4596C41.3579 27.2116 41.4889 28.0636 42.0769 28.0636C42.4049 28.0636 42.6999 27.8996 42.8969 27.7036C42.7659 29.2086 41.6509 30.5206 40.0799 30.5206C37.1979 30.5206 36.1169 27.1466 35.7909 25.1816C34.0549 27.0156 32.4509 28.3586 29.5679 28.3586C26.8839 28.3586 25.6719 26.3936 25.6719 24.5276C25.6719 23.9696 25.8679 22.5296 26.5569 22.5296C27.3749 22.5296 26.6549 25.2136 28.2589 25.2136C28.6529 25.2136 29.3709 24.8856 29.7659 23.8066C29.9949 23.1506 30.1259 22.4646 30.1259 21.8736C30.1259 20.9886 29.9299 20.4336 29.2749 20.4336C28.7169 20.4336 28.0289 20.8576 27.7999 21.0876C28.5869 18.7296 30.4859 17.5186 32.5789 17.5186C35.1689 17.5186 36.5429 19.8106 36.5429 22.3656C36.5429 22.7246 36.5099 23.1176 36.4439 23.4786C37.5579 21.6446 39.0989 20.2366 40.7679 20.2366Z" fill="#1766A6"/>
<path d="M34.6438 29.0449C33.2358 29.0449 33.1708 30.7509 33.1708 34.1869C32.1218 31.9279 30.3878 29.5039 28.3568 29.5039C26.9818 29.5039 26.4588 30.4219 26.4588 32.0249C26.4588 32.3529 26.4908 32.8449 26.5568 33.1379C26.7208 32.5829 27.2448 32.3529 27.8988 32.3529C29.3088 32.3529 31.0108 33.4329 32.1238 34.9079C30.8478 34.6789 29.6028 34.4489 28.5558 34.4489C27.8998 34.4489 27.3108 34.5149 26.8198 34.7439C25.8698 35.1689 24.5928 36.5779 24.5928 38.7069C24.5928 39.0349 24.6258 39.3939 24.6918 39.7869C25.8378 37.2319 28.8828 36.0859 30.8478 36.0859C31.2418 36.0859 31.5348 36.1189 31.7648 36.1519C30.7488 37.0679 30.5208 38.6729 30.4538 39.7539C30.4228 40.2779 30.2248 40.3119 29.8638 40.3119C29.8638 41.3909 30.7168 42.9969 30.7168 43.8149C30.7168 44.1099 30.5528 44.3719 30.3898 44.4379C30.3898 45.8789 31.8288 46.9269 31.8288 47.8429C31.8288 48.0719 31.7648 48.2689 31.6648 48.3679C31.7648 48.9579 33.3488 49.9489 33.5538 50.4459C33.8058 51.0499 34.0888 51.1519 34.2528 51.1519C34.8098 51.1519 35.6918 50.4959 35.6918 49.9059C35.6918 49.7099 35.5278 49.4809 35.3988 49.3819C34.7758 48.9249 34.4478 47.9419 34.1858 47.2879C33.9558 47.2879 33.6598 47.1909 33.5558 46.8049C33.3768 46.1269 33.3678 44.8639 33.1058 44.1099C32.6798 44.0119 32.4828 43.8479 32.4828 42.9639C32.4828 42.5379 32.7458 40.8669 32.7458 40.2769C32.5498 40.2769 32.2878 40.1459 32.2878 39.7529C32.2878 38.7059 33.3368 37.8869 33.6298 36.5449C35.4968 37.9189 35.9538 39.3269 35.9538 40.5729C35.9538 41.2259 35.8558 41.8489 35.7248 42.4399C37.1008 41.7509 39.1638 40.7359 39.1638 38.6729C39.1638 37.4599 38.6068 36.1179 34.9058 35.5939C36.0518 35.1679 37.4938 34.9399 38.7048 34.9399C40.8018 34.9399 42.0128 35.5939 42.2738 37.0669C42.6998 36.4129 43.0278 35.6589 43.0278 34.9719C43.0278 33.3659 41.6838 32.3199 39.9818 32.3199C37.9838 32.3199 36.2158 33.3659 34.3158 34.6449C35.1698 32.8769 35.7558 31.8289 36.8058 31.8289C36.9688 31.8289 37.1328 31.8619 37.2968 31.8949C36.9038 30.4549 35.4308 29.0449 34.6438 29.0449Z" fill="#1766A6"/>
<path d="M89.8204 52.6572C91.4604 52.6572 92.7703 54.7852 92.7703 57.2752C92.7703 59.9272 91.5244 62.8102 89.3034 64.7732C89.2704 60.3532 83.8604 61.7612 83.8604 58.5532C83.8604 57.1782 84.8454 56.2602 86.0254 56.2602C87.0744 56.2602 87.8934 56.5552 88.4834 57.1462C87.8934 56.5882 87.5984 55.8012 87.5984 55.0492C87.5984 53.8022 88.3854 52.6572 89.8204 52.6572Z" fill="#1766A6"/>
<path d="M60.5795 21.5473C61.4325 22.3663 62.1835 22.7253 63.1015 22.7253C63.4635 22.7253 63.8905 22.6283 64.1205 22.6283C64.4155 22.6283 64.6105 22.7583 64.6105 22.9873C64.6105 23.3483 64.2825 23.9383 63.8905 24.2663C64.2825 24.4293 64.7095 24.4953 65.1685 24.4953C67.0285 24.4953 69.1585 23.3153 69.1585 20.3693C69.5535 20.8913 69.7825 21.9733 69.7825 22.4653C69.7825 26.0343 67.1595 27.4093 64.7415 27.4093C63.1685 27.4093 62.3805 26.8843 62.1825 26.8843C61.5615 26.8843 61.5945 28.1303 61.1685 28.0973C60.4145 27.9663 59.7285 26.2963 59.7285 24.5283C59.7295 23.4793 59.9915 22.3663 60.5795 21.5473ZM65.5225 19.1563C65.2605 18.7303 64.2825 18.5023 63.8255 18.5023C62.3815 18.5023 61.3985 19.5163 61.2025 20.4343C61.0715 20.1063 60.9735 19.7133 60.9735 19.3203C60.9735 17.8793 61.9565 16.1113 64.3505 16.1113C66.4405 16.1113 67.2595 17.2243 67.5555 17.2243C67.8825 17.2243 68.2105 16.8963 68.4735 16.8963C68.8335 16.8963 68.8335 17.4533 68.8335 17.8473C68.8335 19.1563 68.2425 21.4163 66.7685 22.2353C66.5055 21.6783 65.9815 21.0553 65.1355 20.6633C64.9065 20.5653 64.8085 20.3693 64.8085 20.1723C64.8075 19.8113 65.1345 19.3523 65.5225 19.1563Z" fill="#1766A6"/>
<path d="M37.8201 12.0172C37.8201 13.1632 41.9131 18.7632 42.7001 18.7632C43.3561 18.7632 43.8461 17.6172 43.8461 16.6332C43.8461 16.3732 43.7801 16.1122 43.6511 15.9142C43.0611 15.0952 38.9021 11.8202 37.9841 11.8202C37.8851 11.8202 37.8201 11.9192 37.8201 12.0172ZM13.7501 8.6442C13.7501 9.3002 11.2621 11.4932 10.3791 11.4932C10.0521 11.4932 9.95211 11.1012 9.95211 10.7412C9.95211 10.0872 10.2471 9.1692 10.6081 8.8732C11.0321 8.4802 12.0151 8.2862 12.7681 8.2862C13.2261 8.2862 13.7501 8.3822 13.7501 8.6442ZM43.6511 10.5442C43.6511 8.5782 38.3381 5.0092 38.2791 3.4712C38.2731 3.3302 38.3501 3.1902 38.4691 3.0652C39.3791 2.1052 43.1581 1.4052 43.1581 0.587203C43.1581 0.163203 42.3711 0.163203 41.9781 0.163203C38.9331 0.163203 34.4791 1.2762 34.4791 2.3562C34.4791 3.4712 38.4741 6.1892 38.4741 7.5322C38.4741 7.8922 38.2451 8.0232 37.8841 8.0232C36.7721 8.0232 34.3481 6.6792 33.2021 6.6792C32.6781 6.6792 32.4801 7.0392 32.4801 7.5652C32.4801 9.1362 34.3471 12.1162 34.3471 12.9982C34.3471 13.0972 34.3141 13.2282 34.1831 13.2282C33.5931 13.2282 30.8121 9.9552 29.8281 9.9552C29.4691 9.9552 29.4351 10.4452 29.4351 11.1662V12.2792C29.4351 13.0322 29.4021 13.4912 29.0441 13.4912C28.1901 13.4912 27.7981 11.1012 26.9801 11.1012C26.1281 11.1012 25.9641 15.3572 25.1471 15.3572C24.1961 15.3572 25.0151 10.6742 24.0981 10.6742C23.0831 10.6742 21.9361 13.7862 21.2151 13.7862C20.9541 13.7862 20.8891 13.5232 20.8891 13.2942C20.8891 12.3452 21.4441 10.8062 21.4441 9.8902C21.4441 9.4302 21.3131 9.1692 20.9221 9.1692C19.9051 9.1692 17.6791 10.8062 16.8281 10.8062C16.6971 10.8062 16.5331 10.7412 16.5331 10.6092C16.5331 9.8252 20.1021 7.3352 20.1021 6.2222C20.1021 5.1402 15.1881 5.8622 15.1881 4.6162C15.1881 3.5692 18.6951 2.4882 18.6951 1.4072C18.6951 0.457203 14.5351 0.0332031 12.9311 0.0332031C10.9981 0.0332031 9.95111 0.260203 9.95111 0.817203C9.95111 1.6692 14.3401 1.9322 14.3401 2.6842C14.3401 3.4052 9.78711 5.3372 9.78711 6.4502C9.78711 7.4332 16.2051 6.5152 16.2051 7.5322C16.2051 8.6442 10.6071 13.4572 10.6071 15.0622C10.6071 15.4232 10.8691 15.5872 11.2281 15.5872C12.9311 15.5872 17.3501 12.3452 18.5631 12.3452C18.9891 12.3452 19.0221 12.8682 19.0221 13.3272C19.0221 14.1792 18.7281 15.4882 18.7281 16.4392C18.7281 17.1912 18.9241 17.7152 19.5781 17.7152C20.7921 17.7152 21.9031 15.6522 22.7241 15.6522C23.7711 15.6522 23.1491 21.7102 24.7211 21.7102C26.0631 21.7102 26.6191 15.1612 27.4711 15.1612C28.3231 15.1612 29.0121 17.0602 29.7971 17.0602C30.7781 17.0602 30.3201 13.7532 31.3691 13.7532C32.5141 13.7532 35.7891 17.6832 37.2631 17.6832C37.7211 17.6832 37.8841 17.3222 37.8841 16.8632C37.8841 15.1272 35.4621 11.1992 35.4621 9.9552C35.4621 9.6282 35.5591 9.5292 35.9191 9.5292C37.1961 9.5292 40.9311 11.2972 42.6981 11.2972C43.2921 11.2972 43.6511 10.9702 43.6511 10.5442ZM40.2441 4.0602C40.2441 4.6492 42.3071 5.9272 43.2581 5.9272C43.8141 5.9272 43.9781 5.1732 43.9781 4.3872C43.9781 3.4052 43.5541 3.3722 42.7011 3.3722C41.6201 3.3722 40.2441 3.6672 40.2441 4.0602ZM32.5481 0.719203C32.5481 0.522203 31.5661 0.325203 30.2241 0.325203C28.0951 0.325203 28.3901 2.0962 26.7531 2.0962C25.0501 2.0962 25.4741 0.260203 23.3131 0.260203C22.0031 0.260203 20.7931 0.490203 20.7931 0.784203C20.7931 1.1782 22.3311 1.0142 22.3311 2.0962C22.3311 3.2412 19.0231 3.5692 19.0231 4.2572C19.0231 4.4862 19.2841 4.5842 19.6121 4.5842C20.3341 4.5842 21.4781 4.2572 22.2981 4.2572C22.7571 4.2572 23.1831 4.3542 23.1831 4.7802C23.1831 5.5992 21.4131 7.0732 21.4131 7.7282C21.4131 7.9252 21.5761 7.9912 21.7401 7.9912C22.3961 7.9912 23.5101 6.3202 24.5571 6.3202C26.2931 6.3202 25.1481 10.0202 26.0961 10.0202C27.0781 10.0202 26.6531 6.3842 28.0611 6.3842C29.2091 6.3842 30.0591 8.9062 30.8451 8.9062C31.0421 8.9062 31.2051 8.7432 31.2051 8.5132C31.2051 7.8272 30.2231 6.4172 30.2231 5.5012C30.2231 4.9442 30.6161 4.6812 31.1401 4.6812C31.8921 4.6812 32.9081 5.1402 33.4631 5.1402C33.6591 5.1402 33.8561 5.0752 33.8561 4.8462C33.8561 4.0602 30.9441 3.2092 30.9441 2.1942C30.9451 1.1782 32.5481 1.1782 32.5481 0.719203Z" fill="#1766A6"/>
<path d="M90.6062 6.02566C90.6062 8.93866 88.4832 11.1657 84.6472 11.7877C85.0742 11.8197 85.4672 11.8197 85.8612 11.8197C90.3442 11.8197 91.9842 9.79066 91.9842 8.08866C91.9842 7.13766 91.4592 6.28766 90.6062 6.02566ZM85.0742 9.33166C85.0742 7.00666 79.5112 6.41666 79.5112 5.89366C79.5112 5.46866 82.6172 4.74666 84.2222 4.71366C81.7662 1.57066 78.2662 1.89866 78.2662 1.34166C78.2662 1.01366 80.8872 0.357656 83.3072 0.357656C85.3372 0.357656 87.2372 0.816656 87.2372 2.35566C87.2372 3.20866 86.5492 4.09366 86.5492 5.40166C86.5492 6.12266 86.9072 6.74466 87.8602 6.74466C88.8782 6.74466 89.1052 5.66466 89.1052 4.51666C89.1052 3.56866 88.9422 2.84766 88.9422 2.38866C88.9422 1.01366 89.8852 0.0976562 91.2292 0.0976562C92.3432 0.0976562 92.6062 0.586656 94.2452 0.586656C93.3592 1.11266 93.0322 2.06266 93.0322 2.51966C93.0322 3.89666 93.9192 4.84566 93.9192 7.66266C93.9192 12.8347 89.0732 14.6687 83.1432 14.6687C81.5132 14.6687 79.7742 14.5377 78.0692 14.2767C77.8082 14.2437 77.7422 14.1787 77.7422 14.0147C77.7422 13.5887 80.0702 13.3587 80.0702 11.2647C80.0702 10.4447 79.8072 9.65966 79.8072 9.36566C79.8072 9.20166 79.9382 9.10266 80.0702 9.10266C80.5612 9.10266 81.5462 11.0017 83.3742 11.0017C83.8602 11.0017 85.0742 10.8377 85.0742 9.33166ZM90.4102 2.09566C90.4102 2.55266 90.7702 2.91266 91.2292 2.91266C91.6882 2.91266 92.0492 2.55266 92.0492 2.09566C92.0492 1.63666 91.6882 1.27566 91.2292 1.27566C90.7702 1.27566 90.4102 1.63666 90.4102 2.09566Z" fill="#1766A6"/>
<path d="M87.5 32.3529C87.5 31.6659 85.762 31.6009 85.599 29.6679C85.565 29.3739 85.467 28.8509 85.106 28.8509C84.517 28.8509 84.975 30.6519 84.32 30.6519C82.814 30.6519 82.323 27.7039 81.766 27.7039C81.634 27.7039 81.478 27.8019 81.478 28.1949C81.478 28.5559 81.544 28.7849 81.544 29.2089C81.544 29.6359 81.444 29.9309 81.052 29.9309C80.167 29.9309 79.38 27.8669 78.626 27.8669C78.462 27.8669 78.299 27.9659 78.299 28.1299C78.299 28.5229 78.953 29.2419 78.953 29.6029C78.953 30.3899 76.823 29.9629 76.823 30.6189C76.823 30.9139 77.117 31.0109 77.511 31.0109C78.2 31.0109 79.282 30.7179 79.839 30.7179C80.167 30.7179 80.658 30.7829 80.658 31.2069C80.658 31.6659 79.478 32.2549 79.478 32.6809C79.478 32.8779 79.674 32.9749 79.838 32.9749C80.723 32.9749 82.289 31.4369 83.403 31.4369C83.599 31.4369 84.09 31.5349 84.09 31.8299C84.09 32.2549 82.977 33.0069 82.977 33.6299C82.977 33.7939 83.077 33.9899 83.273 33.9899C83.859 33.9899 84.646 32.4519 85.761 32.4519C86.187 32.4519 86.81 32.6159 87.139 32.6159C87.402 32.6159 87.5 32.4519 87.5 32.3529ZM88.352 48.2359C88.877 46.5999 89.533 45.4519 90.606 43.6839C89.533 43.1289 86.68 41.9479 86.68 40.0159C86.68 37.7559 89.497 35.9879 90.081 35.9879C90.344 35.9879 90.409 36.2179 90.409 36.6439C90.409 37.8219 89.852 39.7209 89.852 40.7369C89.852 41.6529 90.442 42.5389 90.966 42.5389C91.523 42.5389 93.063 40.5739 93.063 38.6409C93.063 35.1689 90.015 34.1219 89.072 34.1219C88.187 34.1219 86.581 35.5619 82.813 35.5619C75.774 35.5619 74.168 28.5889 74.168 25.5419C74.168 25.4109 74.199 25.3779 74.232 25.3779C74.396 25.3779 75.086 26.2309 77.313 26.2309C78.46 26.2309 79.509 25.9349 81.181 25.9349C85.104 25.9349 86.842 28.6549 89.268 32.1239C90.735 33.0399 94.243 34.5149 94.243 38.6739C94.243 42.3419 90.343 44.3719 89.399 48.3019C90.899 48.1389 91.785 45.4519 93.325 45.4519C94.112 45.4519 94.472 46.0749 94.472 47.0589C94.472 48.4979 93.652 50.6609 92.079 52.0029C92.111 51.8719 92.111 51.7069 92.111 51.5109C92.111 50.5949 91.752 49.2859 90.701 49.2859C89.07 49.2859 88.546 51.0539 87.629 52.5259C86.678 49.1869 85.4 46.1729 83.108 44.3389C80.789 42.4729 76.789 43.4869 76.789 40.0819C76.789 39.1639 77.38 37.8549 77.38 36.8069C77.38 36.4469 77.314 36.1189 77.116 35.8569C80.263 37.0369 79.148 39.1309 81.084 41.2929C82.289 42.6699 85.631 43.9789 87.564 49.6439C87.596 49.4809 87.629 49.0559 87.629 48.7609C87.629 43.9139 81.213 39.1639 80.656 37.1989C84.383 37.6249 85.038 38.5429 86.808 43.4549C87.171 44.4709 88.352 46.9929 88.352 48.2359Z" fill="#1766A6"/>
<path d="M70.4384 13.589C68.1434 13.589 66.6364 12.444 66.6364 11.853C66.6364 11.558 66.8324 11.363 67.0964 11.363C67.8164 11.363 69.3894 12.475 69.9124 12.475C70.0454 12.475 70.1424 12.411 70.1424 12.214C70.1424 11.624 69.5854 10.642 69.5854 10.152C69.5854 10.02 69.6844 9.923 69.8804 9.923C70.7644 9.923 72.0754 10.283 72.7654 10.283C72.9944 10.283 73.0594 10.152 73.0594 10.02C73.0594 9.3 70.9284 7.892 70.9284 7.466C70.9284 7.073 73.5764 6.482 73.5764 5.862C73.5764 5.206 69.9764 5.665 69.9764 5.042C69.9764 4.584 70.6654 3.798 70.6654 3.438C70.6654 3.274 70.5334 3.209 70.3054 3.209C70.0104 3.209 68.4374 3.831 67.7814 3.831C67.4544 3.831 67.0604 3.766 67.0604 3.306C67.0604 2.553 68.3384 1.735 70.3384 1.735C73.5754 1.735 75.5104 3.962 75.5104 7.695C75.5124 12.411 72.2084 13.589 70.4384 13.589ZM64.0544 7.368C64.0544 7.007 62.7744 6.32 62.7744 5.927C62.7744 5.862 62.8384 5.829 62.9374 5.829C63.2994 5.829 63.9224 5.96 64.4154 5.96C64.8414 5.96 64.9064 4.126 65.2284 4.126C65.4574 4.126 65.8494 5.862 66.2124 5.862C66.6374 5.862 67.4234 5.37 67.7514 5.37C67.8164 5.37 67.8824 5.402 67.8824 5.469C67.8824 5.698 67.0634 6.581 67.0634 6.843C67.0634 7.138 68.8994 7.499 68.8994 7.761C68.8994 8.089 67.0304 8.056 67.0304 8.351C67.0304 8.578 67.7194 9.496 67.7194 9.791C67.7194 9.857 67.6854 9.89 67.6204 9.89C67.3574 9.89 66.3424 9.43 66.0474 9.43C65.6864 9.43 65.1034 10.773 64.8084 10.773C64.7104 10.773 64.6454 10.642 64.6454 10.478L64.5794 9.169C64.5794 9.038 64.5154 8.906 64.3504 8.906C63.9564 8.906 63.2024 8.873 62.9714 8.873C62.8074 8.873 62.7424 8.841 62.7424 8.775C62.7414 8.513 64.0544 7.597 64.0544 7.368ZM63.1014 12.736C63.6274 12.736 63.7254 14.015 63.8254 14.767C63.8904 15.161 63.9564 15.193 64.1204 15.193C64.5144 15.193 65.1354 13.687 65.5564 13.687C66.1774 13.687 67.8504 15.423 70.6354 15.423C74.5954 15.423 78.3314 12.638 78.3314 7.728C78.3314 2.979 74.9864 0.195 70.3724 0.195C68.1784 0.195 66.5704 1.276 65.7184 1.276C65.2014 1.309 64.4154 0 64.0204 0C63.8574 0 63.6934 0.325 63.6934 0.883C63.6934 1.244 63.6934 2.389 63.2994 2.389C62.5114 2.389 59.4674 0.131 59.4674 0.948C59.4674 1.702 61.4954 3.995 61.4954 4.584C61.4954 5.173 59.4994 5.731 59.4994 6.123C59.4994 6.843 61.6274 6.974 61.6274 7.892C61.6274 8.808 59.3994 9.529 59.3994 10.217C59.3994 10.773 61.6274 10.381 61.6274 11.068C61.6274 11.755 59.9904 14.048 59.9904 14.701C59.9904 14.866 60.0224 14.866 60.1524 14.866C60.7754 14.866 62.6424 12.736 63.1014 12.736Z" fill="#1766A6"/>
<path d="M48.2673 70.2433C48.2673 70.5383 48.1683 70.8663 47.9063 71.1923C47.5483 70.5383 46.5313 70.2103 46.0723 70.2113C42.6993 70.2113 43.9763 75.0913 40.3743 75.0913C38.8683 75.0913 38.7363 74.8943 38.1813 74.8943C37.9513 74.8943 37.8203 74.9933 37.8203 75.1893C37.8203 76.0423 39.0323 78.1363 42.4053 78.1363C45.7783 78.1363 49.0213 76.0743 49.0213 73.5173C49.0213 73.0913 48.9233 72.6363 48.7263 72.1773C48.8573 71.9803 49.1863 71.8493 49.4803 71.8493C50.0033 71.8493 50.2983 72.4413 50.7893 72.4413C51.3143 72.4413 51.7073 72.0463 51.7073 71.5233C51.7073 71.0953 51.4783 70.8023 51.0863 70.6033C51.3483 70.4083 51.5443 70.0803 51.5443 69.7203C51.5443 69.1613 51.1503 68.6403 50.4943 68.6403C50.1993 68.6403 50.0043 68.7403 49.7753 68.9643C49.7113 68.3783 49.3823 67.8213 48.7593 67.8213C48.2683 67.8213 47.9063 68.1803 47.9063 68.7393C47.9063 69.2593 48.2673 69.6873 48.2673 70.2433Z" fill="#1766A6"/>
<path d="M30.3226 64.1537C32.9426 64.8047 34.2526 66.2137 34.5136 67.8847C34.7756 69.4887 35.1026 70.8007 35.7246 71.4537C36.5436 72.3727 38.1486 73.1867 39.5576 73.1867C40.7366 73.1867 41.6846 72.7977 41.6846 71.7157C41.6846 70.5357 40.0806 67.8837 37.7226 67.8837C37.4936 67.8837 37.1986 67.9177 36.8706 67.9177C36.5756 67.9177 36.1496 67.8527 35.8886 67.6227C35.3656 67.1627 35.2006 64.7067 34.2186 63.2337C33.1386 61.5957 31.9596 61.1367 30.3556 61.1367C29.2106 61.1367 27.9316 61.7577 27.9316 62.6757C27.9316 63.2357 28.2266 63.6277 30.3226 64.1537ZM39.4596 71.4877C38.4756 71.4877 37.0026 70.4377 37.0026 69.8477C37.0026 69.3557 37.4616 69.0937 37.8196 69.0937C38.6396 69.0937 40.1116 70.1117 40.1116 70.9627C40.1126 71.1917 39.9486 71.4877 39.4596 71.4877Z" fill="#1766A6"/>
<path d="M36.4457 45.9773C36.4457 43.8813 41.4247 42.7683 41.4247 40.1803C41.4247 39.7543 41.2607 39.0023 40.9657 38.4453C42.6997 39.3943 43.9777 41.0003 43.9777 42.3093C43.9777 44.5693 41.6207 45.6173 41.6207 47.0263C41.6207 48.6633 44.1417 48.9253 44.1417 50.9553C44.1417 52.6243 41.7507 54.5573 41.7507 56.7183C41.7507 58.3883 42.9307 59.7623 44.7297 59.9923C44.1407 60.1233 43.6177 60.2213 43.0607 60.2213C39.7517 60.2213 36.3467 57.5043 36.3467 54.2613C36.3467 52.6573 37.0347 51.2513 38.0807 50.2353C38.9997 51.0213 39.9157 51.5443 40.5057 51.5443C41.0287 51.5443 41.2597 51.2833 41.2597 50.8903C41.2607 49.6773 36.4457 48.5653 36.4457 45.9773ZM46.8927 62.5153C45.7697 63.0293 45.3217 62.9413 45.3217 64.0883C45.3217 64.5133 45.2227 65.0673 45.2227 65.3633C45.2227 65.7563 45.2877 65.9863 45.7457 65.9863C46.9257 65.9863 48.7927 63.9893 48.7927 62.2853C48.7927 61.8253 48.5297 61.6323 48.2347 61.6323C47.9727 61.6323 47.6797 62.1543 46.8927 62.5153ZM46.7617 60.1563C46.7617 58.6833 43.7157 58.6503 43.7157 56.4233C43.7157 55.8653 44.0747 54.9173 44.7967 53.9003C45.0927 55.6033 45.7777 56.4883 47.2537 57.0463C50.1667 58.1253 50.5607 59.7623 50.5607 61.5003C50.5607 64.4483 48.4977 68.1153 43.1927 68.1153C38.9347 68.1153 35.8887 64.3153 35.8887 61.1063C35.8887 60.2213 36.1177 59.2403 36.6747 59.2403C37.1667 59.2403 37.3297 59.6323 37.7227 60.0243C39.1977 61.5003 40.8017 61.8913 43.1267 61.8913C45.2227 61.8923 46.7617 61.0413 46.7617 60.1563Z" fill="#1766A6"/>
<path d="M23.5701 60.8666C23.6501 61.5506 23.1611 62.1676 22.4781 62.2476C21.7941 62.3276 21.1741 61.8376 21.0961 61.1546C21.0161 60.4696 21.5051 59.8506 22.1891 59.7706C22.8731 59.6906 23.4911 60.1816 23.5701 60.8666ZM17.4501 62.1546C17.5891 63.2726 18.6321 64.1206 19.8091 63.9896C20.2341 63.9426 20.6281 63.8266 20.8911 63.6626C21.1531 64.7096 22.0321 65.3836 23.2201 65.2276C24.4261 65.0706 25.2461 64.1206 25.1161 62.9086C25.0821 62.5826 25.0171 62.3836 24.9201 62.1546C24.9201 62.1546 25.0791 62.1376 25.1991 62.1156C26.3821 61.8916 27.1791 60.9426 27.0801 59.7966C26.9501 58.6176 25.8921 57.7426 24.7911 57.8786C24.3641 57.9306 23.9701 58.0936 23.7071 58.3226C23.4111 57.3416 22.4881 56.4886 21.2281 56.6966C20.0891 56.8856 19.3361 57.8516 19.4501 59.0766C19.4691 59.2756 19.5151 59.5026 19.6141 59.7306C19.6141 59.7306 19.4211 59.7596 19.2881 59.7786C18.3321 59.9206 17.2951 60.8826 17.4501 62.1546Z" fill="#1766A6"/>
</svg>
