<svg width="143" height="147" viewBox="0 0 143 147" fill="none" xmlns="http://www.w3.org/2000/svg">
<path d="M138.679 130.489C141.301 130.504 143.012 131.853 143 133.572C142.992 134.772 142.003 135.812 140.611 135.804C137.659 135.787 138.408 133.772 137.181 133.765C133.897 133.745 131.475 139.48 128.986 144.471C127.986 146.478 127.406 146.848 126.588 146.843C124.529 146.832 124.081 141.677 123.272 139.433C121.527 142.78 118.218 146.795 112.8 146.764C109.683 146.746 106.587 145.234 106.618 140.684C106.654 135.609 110.28 131.968 113.972 131.989C116.764 132.005 118.632 134.633 118.619 136.496C118.584 141.502 111.359 141.604 111.351 142.651C111.345 143.622 113.23 144.008 114.294 144.015C118.894 144.041 122.016 138.412 123.059 134.58C123.239 133.915 123.894 132.495 125.208 132.502C126.687 132.511 125.972 140.943 128.024 140.956C129.257 140.963 130.965 130.444 138.679 130.489ZM71.3605 124.408C71.9029 133.429 68.5753 137.175 66.9 140.413C67.1705 141.674 69.5033 143.83 71.7177 143.843C72.5354 143.848 73.5272 143.48 73.7771 143.179C73.6161 142.66 73.4533 141.986 73.4599 141.014C73.4962 135.787 77.2201 131.402 80.4199 131.421C82.963 131.435 84.4193 134.505 84.4054 136.524C84.3884 138.909 82.1579 140.842 78.8657 142.69C79.4385 143.212 80.4981 143.596 81.404 143.601C86.0835 143.628 88.569 138.489 90.414 133.793C90.7476 132.898 91.3339 131.634 92.4803 131.641C94.4493 131.652 95.1908 143.454 98.4633 143.472C99.8628 143.48 101.027 140.871 101.041 138.861C101.052 137.365 100.479 137.212 100.494 135.046C100.51 132.661 101.92 130.654 103.811 130.665C104.959 130.672 105.365 131.715 105.357 132.981C105.323 137.761 101.483 146.625 95.9115 146.593C91.7195 146.569 92.0921 140 90.6175 139.992C88.9691 139.983 86.6264 146.613 78.5116 146.567C77.1929 146.559 75.8051 145.955 74.6673 144.75C72.6922 145.937 71.0437 146.449 69.1565 146.439C66.1236 146.422 64.8281 143.577 63.6003 143.569C62.1206 143.561 60.4643 146.463 55.5366 146.435C51.5993 146.412 50.9757 141.635 49.5838 141.627C48.3505 141.62 46.4313 146.383 44.382 146.371C40.9312 146.351 40.2565 138.063 37.216 138.045C34.8377 138.031 27.2617 146.403 25.2223 146.198C24.4026 146.116 24.0609 145.556 24.1531 144.811C24.2758 143.778 25.2726 141.018 25.6773 139.713C26.3568 137.446 26.9828 134.962 27.3285 134.17C27.6712 133.371 28.5867 132.806 29.3171 132.872C29.6857 132.906 29.7916 133.531 29.9024 134.048C30.3035 135.897 30.8697 137.781 31.5226 137.786C32.6751 137.793 36.5275 131.169 38.7409 131.181C41.453 131.197 41.705 141.653 45.3941 141.674C46.6274 141.681 47.5429 140.344 48.3711 138.702C48.4747 135.936 49.3209 131.993 51.7822 132.007C53.5066 132.017 54.3037 135.528 53.0481 138.585C53.0227 142.239 55.6387 143.151 57.3654 143.16C58.5946 143.167 60.712 142.817 62.3932 140.401C61.4548 138.473 60.8027 134.582 60.7178 133.167C60.2783 125.926 63.3895 119.136 66.7453 118.968C69.2048 118.845 71.1581 120.975 71.3605 124.408ZM22.3517 123.176C23.074 125.57 23.1354 128.702 22.855 133.181C22.4894 139.3 19.0719 146.674 10.7061 146.473C3.48574 146.288 0.318971 142.013 0.0316596 135.516C-0.103994 132.454 0.157406 129.395 1.58151 125.075C2.3365 122.762 3.00156 121.941 5.29827 121.51C7.10317 121.22 6.92916 122.934 6.5067 124.955C5.5772 129.426 5.14407 131.586 5.44104 136.666C5.72581 142.044 8.4244 144.15 11.3778 144.167C15.8079 144.271 17.798 140.922 18.6558 136.07C19.3349 132.194 18.857 130.325 18.4513 129.13C18.2224 128.45 17.5485 126.92 17.3709 125.793C16.9777 123.297 18.4208 121.663 19.74 121.293C21.2198 120.926 21.7914 121.605 22.3517 123.176ZM79.1695 135C78.4231 134.996 76.7016 135.73 76.6851 138.119C76.6721 139.992 77.3971 140.885 77.7294 141.267C80.1079 140.607 80.7816 138.814 80.792 137.32C80.8009 136.056 80.065 135.005 79.1695 135ZM112.882 134.974C109.765 134.956 109.981 139.581 110.468 140.706C112.767 140.347 114.25 139.081 114.67 137.966C115.089 136.843 114.607 134.984 112.882 134.974ZM66.7803 123.444C65.1454 123.524 64.3586 128.197 64.6581 133.116C64.8487 136.325 65.3699 136.823 65.8594 136.795C66.7633 136.751 68.9708 131.032 68.6901 126.408C68.5619 124.32 68.0131 123.374 66.7803 123.444ZM52.8489 119.919C54.2443 119.927 55.2711 120.748 55.3783 121.947C55.531 123.668 54.2059 125.526 52.4074 125.516C50.8395 125.507 50.0492 124.489 49.958 123.257C49.8152 121.388 51.2924 119.91 52.8489 119.919ZM69.1313 90.903C71.0133 91.4787 73.1612 93.0814 73.6879 93.905C74.433 93.6582 75.3079 93.534 76.3155 93.533C77.7171 93.5318 79.2951 93.7769 81.1784 94.3118C81.2665 93.775 81.3533 93.1161 82.2302 93.1157C83.5439 93.1147 83.1942 94.4737 83.6333 95.251C83.853 95.6624 84.9511 95.909 84.9521 96.7316C84.9526 97.5155 84.2476 97.8042 83.8113 97.8047C83.6354 97.8047 83.4165 97.7637 83.2841 97.7232C82.4103 98.0119 82.3717 103.933 78.6913 103.936C75.9753 103.939 73.477 101.843 72.3778 99.2136C72.0698 98.4326 71.4141 97.9383 70.7996 97.9388C70.0999 97.9393 69.7061 98.0633 68.8764 98.9296C66.5132 101.355 62.5714 103.455 57.7093 103.459C56.2184 103.46 55.0365 103.339 54.7295 103.339C54.5535 103.339 54.5535 103.38 54.5535 103.42C54.5535 103.709 56.044 104.82 59.2864 104.817C66.996 104.811 68.878 100.735 70.103 100.734C70.2785 100.734 70.8021 100.734 71.1096 101.393C72.9094 105.336 76.8323 106.238 79.2857 106.236C81.3871 106.234 81.278 106.071 81.9368 106.07C82.5929 106.069 82.6379 106.439 82.6379 106.686C82.6389 107.592 80.4905 108.707 76.6823 108.71C74.4471 108.712 73.0877 107.6 72.6918 106.366C70.5043 107.685 67.176 108.881 63.8892 108.884C54.9106 108.892 52.6284 105.229 49.8243 104.042C47.6748 103.138 44.3926 104.911 39.7877 100.102C40.4018 100.224 41.2355 100.265 41.8924 100.264C45.9195 100.261 48.0646 98.4108 48.0616 95.4458C48.0616 95.075 48.0169 94.668 47.9732 94.2991C49.2013 94.7502 52.0064 96.7196 52.668 100.214C52.7558 100.626 54.551 100.995 55.6892 100.994C57.2677 100.993 59.2823 100.372 59.5862 97.9477C64.843 97.5325 68.3898 94.6094 69.1313 90.903ZM100.809 94.2876C101.823 94.2867 103.231 95.1717 103.233 97.3447C103.237 101.167 97.09 105.88 88.8614 105.887C86.3195 105.889 84.9536 104.284 84.9521 102.673C84.9503 100.381 86.312 98.2849 87.3566 97.1557C87.8388 96.6306 88.3231 96.228 88.7632 96.2272C89.1155 96.2268 90.1734 96.9104 92.5485 96.9092C96.9933 96.9055 99.6666 95.095 100.809 94.2876ZM98.1723 97.8316C97.919 97.8316 96.4235 99.0824 92.9481 99.0857L92.3757 99.0862C92.4196 99.4475 92.4634 99.69 92.4634 100.013C92.4644 100.975 92.2011 101.983 91.8512 102.946L96.647 101.656C98.2197 100.729 98.6581 99.5639 98.6576 98.6772C98.6568 97.9511 98.3933 97.8316 98.1723 97.8316ZM77.6323 96.3683C76.6701 96.3692 75.8811 97.1108 75.8821 98.0175C75.8826 98.9239 76.6731 99.6624 77.6353 99.6614C78.5993 99.6611 79.3881 98.921 79.3871 98.0143C79.386 97.1077 78.5965 96.3678 77.6323 96.3683ZM36.7291 80.9137C42.1023 80.9091 46.2341 85.1311 46.2398 91.1504C46.2429 93.8639 44.6485 97.8909 38.1653 97.8956C30.4828 97.9016 25.8119 91.8853 25.8083 87.9805C25.8046 84.7081 28.1582 82.6364 29.6223 82.3149C28.0754 88.1381 31.5429 93.876 38.6508 93.8699C42.2046 93.8671 43.9325 92.2295 43.9294 89.4015C43.9263 86.2497 41.5709 83.1042 37.6176 83.1072C35.6195 83.1091 34.243 84.1475 34.244 85.579C34.2463 87.9733 36.4264 89.4877 38.6909 89.4859C40.1993 89.4845 41.1773 88.9255 41.1763 88.0075C41.1758 87.8485 41.131 87.6493 41.0424 87.5289C40.864 87.6091 40.509 87.6886 40.0646 87.6888C38.2445 87.6902 36.7789 86.7332 36.7778 85.7775C36.7773 85.0189 37.3527 84.5438 38.1515 84.5433C40.8166 84.541 42.6399 87.0088 42.6419 88.8044C42.6435 90.6347 41.1804 92.2319 38.6935 92.2337C33.4084 92.2377 31.184 88.2947 31.1814 85.661C31.1783 82.833 33.7963 80.916 36.7291 80.9137ZM64.9358 83.9105C65.7554 83.9098 66.1879 84.557 66.2743 85.2381C66.574 84.9757 66.8322 84.8619 67.2214 84.8615C68.0843 84.8606 68.6027 85.4645 68.6037 86.1125C68.6037 86.5306 68.3455 86.9122 68.0003 87.14C68.519 87.3687 68.8214 87.7113 68.822 88.2063C68.8225 88.8153 68.305 89.273 67.6144 89.2739C66.9675 89.2739 66.5781 88.5871 65.8897 88.588C65.502 88.588 65.0695 88.7426 64.8973 88.9701C65.1575 89.503 65.2873 90.0322 65.2878 90.5265C65.2903 93.4961 61.0227 95.8939 56.5814 95.8977C52.1407 95.9006 50.5424 93.4699 50.5411 92.4799C50.5411 92.2519 50.7134 92.1368 51.0156 92.1368C51.7487 92.1364 51.9219 92.3648 53.9038 92.3631C58.6478 92.3593 56.9608 86.6927 61.4011 86.6894C62.0058 86.6874 63.3443 87.0679 63.817 87.8286C64.1614 87.4489 64.2919 87.0675 64.2914 86.7244C64.2909 86.0784 63.8145 85.5818 63.814 84.9779C63.8135 84.3303 64.2884 83.911 64.9358 83.9105ZM94.3901 89.9041C97.0305 89.9022 98.9578 90.5819 98.9588 91.7496L98.9598 92.6767C98.9603 93.1211 98.8783 93.5686 98.5217 93.8456C97.3876 94.7334 95.6719 95.1778 93.7795 95.1797C91.4042 95.1814 89.4659 94.4172 89.4654 93.6509L89.4636 91.7989C89.4631 91.2331 91.1775 89.9067 94.3901 89.9041ZM108.665 75.919C112.199 75.916 116.132 78.1125 116.137 83.0665C116.142 88.3416 107.951 94.8976 106.728 94.8988C105.723 94.8993 104.63 93.5838 104.63 92.704C104.629 92.4256 104.76 92.0643 105.634 91.7454C109.814 90.2208 112.21 86.7044 112.208 84.9056C112.208 84.5054 111.99 84.1104 111.422 84.1108C110.682 84.1113 107.511 90.7433 103.973 90.7463C101.526 90.7484 99.0357 88.7162 99.0347 87.7553C99.0331 86.1561 106.105 83.1949 106.103 80.9558C106.102 80.1153 105.666 80.0764 105.317 80.0769C104.399 80.0774 99.3379 86.2747 96.0727 86.2779C95.2868 86.2784 94.6312 84.9201 94.6302 83.8846C94.6292 83.3253 95.0204 82.9251 96.4195 82.6433C103.92 81.0776 102.255 75.9242 108.665 75.919ZM81.7692 67.9276C83.694 67.9261 85.3176 68.5429 85.3181 69.3287C85.3191 70.4049 82.4714 69.7456 82.2529 71.0255C84.2691 71.2721 84.7533 71.9335 84.7538 72.4722C84.7548 73.3818 83.877 73.6701 83.0434 73.6708C82.4308 73.6713 81.7307 73.5479 80.9851 73.5488C80.0218 73.5493 79.0598 73.7571 78.2724 74.6262C78.8413 74.7082 79.6744 75.0796 79.6754 75.9075C79.6775 78.3055 72.6261 76.325 72.6322 82.4867C72.635 85.7509 76.2291 89.3051 81.6574 89.3005C84.4615 89.2984 86.2574 88.4285 86.2564 87.4345C86.2554 86.6497 84.7678 87.1887 84.7673 86.5263C84.7668 86.2371 85.2905 85.6969 85.29 85.2416C85.2895 85.0408 85.1152 84.6675 84.7653 84.668C83.9753 84.6685 82.4869 85.8659 79.4649 85.8683C77.1003 85.8702 74.7791 84.594 74.7776 82.8564C74.7771 82.4847 74.9524 82.2765 75.2143 82.2765C75.478 82.276 75.8281 82.4426 76.1344 82.4421C76.3981 82.4421 76.4412 82.2755 76.4407 81.8207C76.4402 81.3656 76.4392 80.0824 77.2692 80.0822C78.1019 80.0812 79.6818 82.9757 85.7273 82.9706C87.7332 82.969 91.6321 82.5942 93.0768 81.3512C93.0369 85.8984 89.2746 91.8952 81.3973 91.902C73.2111 91.9092 68.8276 85.7112 68.822 80.0062C68.8161 73.6824 74.2803 67.9341 81.7692 67.9276ZM40.8545 75.919C42.986 75.9171 44.5529 76.4876 45.9892 78.5241C47.2973 80.3556 47.518 83.4119 48.2128 83.9831C48.5616 84.2682 49.1275 84.3495 49.5194 84.349C49.955 84.3483 50.3464 84.3069 50.6492 84.3065C53.7822 84.3041 55.9163 87.6018 55.9178 89.0706C55.9194 90.416 54.6594 90.9016 53.0943 90.903C51.2223 90.9045 49.0897 89.8913 48.0002 88.7501C47.1738 87.9358 46.7372 86.304 46.3867 84.3098C46.0369 82.2298 44.2952 80.4775 40.8147 79.6706C38.0294 79.0191 37.6378 78.531 37.637 77.8372C37.636 76.6948 39.3335 75.9202 40.8545 75.919ZM50.7819 85.8112C50.305 85.8112 49.696 86.1384 49.697 86.7497C49.6975 87.4846 51.655 88.7884 52.9614 88.7869C53.6118 88.7865 53.8292 88.4191 53.8292 88.1328C53.8276 87.0736 51.8704 85.8102 50.7819 85.8112ZM25.357 45.951C25.9346 45.9505 26.2003 46.4808 26.2014 47.0104C26.2029 48.9651 23.5032 54.5888 23.5048 56.1759C23.5048 56.4207 23.593 56.624 23.8152 56.624C24.9252 56.6231 27.1381 52.2237 27.8453 50.0234C28.2437 48.882 28.7761 48.2703 29.2648 48.2698C29.7082 48.2693 30.1086 48.7174 30.1096 49.655C30.1117 51.8539 27.8965 57.0289 25.9489 60.4938C24.4436 63.1828 22.0965 67.0519 22.0985 69.2114C22.0996 70.3107 22.32 71.4499 24.0529 72.8347C21.213 72.6744 20.0588 72.4307 18.993 70.3955C14.2545 79.076 27.7416 78.2089 23.1333 85.9084C22.2884 84.5269 15.6334 83.1058 15.6251 75.0411C15.6186 68.0771 22.2682 63.9976 22.2656 61.106C22.2651 60.537 22.0447 60.0478 21.4671 59.6001C20.0003 58.4602 19.9545 57.5253 18.8033 57.5262C17.959 57.5272 16.9395 59.3194 18.0063 60.9056C18.3628 61.4349 18.6732 61.7608 18.6737 62.25C18.6748 63.3894 16.7245 66.4447 15.3519 66.4461C13.9752 66.447 12.9093 63.3153 12.9042 58.2619C12.9 53.782 14.0026 49.2608 15.3788 49.2594C15.7774 49.2594 15.9107 49.5033 15.9112 49.8298C15.9117 50.3596 15.7358 51.4179 15.7373 53.2083C15.7389 55.1248 16.2276 55.2879 16.6275 55.2879C18.1344 55.2865 17.8149 46.8133 20.2554 46.8114C20.8325 46.8109 21.0107 47.3412 21.0118 47.9926C21.0133 49.9072 19.9941 52.7186 19.9956 54.2651C19.9967 55.0397 20.2191 55.2846 20.6186 55.2841C21.6849 55.2832 23.5381 45.9522 25.357 45.951ZM59.059 66.679C59.4509 68.7421 60.357 69.8144 62.3026 70.4883C66.1478 71.7941 66.6692 73.7779 66.6713 75.884C66.6753 79.458 63.9573 83.905 56.9597 83.9105C51.3424 83.9149 47.3191 79.3142 47.3151 75.4237C47.3141 74.35 47.6159 73.1606 48.3507 73.1601C48.9995 73.1597 49.2162 73.6341 49.7333 74.1104C51.6807 75.8967 53.7971 76.3698 56.8647 76.3673C59.63 76.3649 61.659 75.3313 61.658 74.259C61.6568 72.4737 57.6373 72.4378 57.6348 69.7375C57.6343 69.0622 58.1083 67.9117 59.059 66.679ZM110.02 77.5974C109.41 77.5979 108.755 78.0391 108.757 79.1188C108.758 80.3138 109.763 81.0737 110.33 81.312C110.636 81.4722 111.117 81.6316 111.593 81.6311C112.861 81.6302 113.865 81.3089 113.864 80.3492C113.863 79.1144 111.896 77.5953 110.02 77.5974ZM63.6037 76.0462C63.2571 76.0462 62.8717 76.6799 61.8344 77.1176C60.3527 77.742 59.7615 77.6358 59.763 79.0266C59.7635 79.5424 59.6338 80.2143 59.6338 80.5714C59.6343 81.0482 59.722 81.3269 60.326 81.3264C61.8817 81.325 64.3412 78.903 64.3395 76.8376C64.3385 76.2807 63.9926 76.0458 63.6037 76.0462ZM81.2072 75.8658C83.744 75.8637 85.4585 77.3906 85.46 78.9633C85.461 80.0332 84.6295 80.945 83.3997 80.9463C82.2623 80.9472 81.4739 80.0785 81.4729 79.0898C81.4724 78.387 81.7786 77.7244 81.7781 77.1047C81.7776 76.6902 81.6449 76.2758 81.2072 75.8658ZM119.743 65.9297C121.918 65.9278 123.662 68.5591 123.664 71.6384C123.667 74.9167 122.017 78.4829 119.07 80.9137C119.021 75.4475 111.839 77.195 111.836 73.2262C111.834 71.5262 113.139 70.3899 114.707 70.3887C116.099 70.3878 117.188 70.7512 117.972 71.4816C117.188 70.7925 116.795 69.8206 116.794 68.8902C116.792 67.3491 117.836 65.9316 119.743 65.9297ZM28.7203 69.9667C30.4065 69.6973 31.6418 70.789 32.0377 72.0447C32.3882 71.7508 32.9162 71.5416 33.4868 71.4739C34.96 71.2991 36.3743 72.4187 36.5505 73.9273C36.6837 75.396 35.6184 76.6111 34.0387 76.898C33.8771 76.9276 33.6642 76.9486 33.6642 76.9486C33.7954 77.242 33.8807 77.4962 33.9279 77.9132C34.1043 79.4652 33.0083 80.6827 31.3959 80.8849C29.8083 81.0851 28.6317 80.2232 28.2802 78.8832C27.9291 79.0934 27.4017 79.244 26.8347 79.3041C25.2591 79.4723 23.8637 78.3891 23.6789 76.9567C23.4688 75.3302 24.8534 74.0963 26.1309 73.9127C26.3078 73.8885 26.5667 73.8508 26.5667 73.8508C26.4342 73.5597 26.3716 73.2693 26.3464 73.0144C26.1927 71.4463 27.1983 70.2094 28.7203 69.9667ZM95.6968 73.2075C98.9754 73.4112 101.08 75.2691 101.082 77.4593C101.084 79.0735 99.8578 80.4353 98.0617 80.4365C96.4064 80.4379 95.3094 79.326 95.3078 77.9604C95.3068 76.761 96.1374 75.687 96.1364 74.5284C96.1358 74.115 96.0044 73.6592 95.6968 73.2075ZM87.0188 68.8317C91.6201 69.6548 94.1192 72.9188 94.1222 75.9777C94.1243 78.0874 92.7258 80.0277 90.2716 80.0296C88.037 80.0313 86.4233 78.589 86.4208 76.272C86.4195 74.5363 87.8529 72.7168 87.8514 70.938C87.8509 70.2364 87.6319 69.534 87.0188 68.8317ZM30.0113 73.9002C29.0963 74.0029 28.4441 74.7968 28.5513 75.6724C28.6562 76.5475 29.4859 77.173 30.3998 77.0706C31.3137 76.9675 31.9665 76.1774 31.8588 75.3014C31.7526 74.4243 30.9257 73.7968 30.0113 73.9002ZM89.8696 72.0537C89.5176 72.054 89.6506 72.5507 89.5623 73.088C89.5192 73.5009 89.3017 73.9962 89.3017 74.3281C89.3022 74.9068 89.7412 75.3614 90.3548 75.3609C91.0555 75.3604 91.4942 74.781 91.4937 74.1189C91.4927 73.2526 90.6586 72.0533 89.8696 72.0537ZM98.5764 54.394C99.2386 54.393 100.169 56.4088 100.611 56.4083C101.318 56.4079 102.288 54.7613 102.953 54.7611C103.171 54.7606 103.26 54.8844 103.261 55.2549C103.263 56.776 102.425 58.5048 102.426 59.9889C102.427 61.0156 102.783 62.2092 103.887 62.2082C104.815 62.2077 105.61 60.8926 105.609 59.4507C105.606 57.8041 105.296 56.5286 105.295 55.8689C105.295 55.5822 105.428 55.4593 105.604 55.4593C106.268 55.4999 106.887 57.186 107.595 57.1855C108.391 57.1851 109.574 55.8241 110.059 55.8236C110.192 55.8236 110.235 55.9884 110.235 56.029C110.236 56.6478 109.221 58.0081 109.222 58.5418C109.222 58.9936 111.786 59.0737 111.786 59.486C111.787 60.1038 109.1 60.1062 107.82 60.6423C106.583 61.1363 105.831 61.7545 105.832 62.5782C105.833 63.4015 106.717 63.5639 107.955 63.563C110.907 63.5606 112.98 62.0782 113.641 62.0777C113.774 62.0777 113.861 62.1593 113.862 62.2833C113.862 62.6951 112.362 64.0537 112.363 64.6708C112.364 65.3703 115.105 66.1888 115.061 66.6015C115.017 66.7251 114.839 66.7661 114.53 66.7661C114.043 66.7666 113.294 66.6444 112.718 66.6449C112.365 66.6454 112.055 66.6859 111.922 66.8503C111.617 67.1812 112.013 69.3611 111.398 69.3616C110.823 69.3621 109.316 64.5089 105.923 64.5113C105.437 64.5117 105.084 64.882 105.085 65.5001C105.086 67.1445 106.812 69.036 108.448 69.9402C109.189 70.3932 110.427 70.845 110.428 71.0924C110.428 71.5843 107.609 71.1358 107.609 71.9577C107.61 72.6993 107.965 73.8118 107.966 74.468C107.966 74.6741 107.922 74.9201 107.656 74.9201C107.127 74.9206 105.841 72.6602 105.223 72.6607C104.694 72.6612 103.546 74.0181 103.058 74.0186C102.927 74.0186 102.839 73.8957 102.838 73.7741C102.837 72.827 104.47 70.6857 104.469 68.5868C104.467 67.5982 104.333 65.4588 103.05 65.4603C101.99 65.4612 100.798 67.0247 100.269 68.5907C99.9613 69.4953 100.186 72.9933 99.4778 72.9943C98.8146 72.9947 98.9889 70.6492 98.1045 70.6494C97.4528 70.6504 96.0396 71.7611 95.5533 71.7616C95.4647 71.7616 95.3759 71.7206 95.3759 71.6388C95.3753 71.1461 96.6555 69.5387 96.6549 69.2097C96.6544 68.5935 93.7381 68.5144 93.7376 68.0198C93.7371 67.7307 94.8859 67.5248 95.9456 67.3583C98.191 66.9856 101.504 65.4612 101.502 63.3233C101.499 60.9365 99.0229 59.9083 97.3967 58.9214C96.5563 58.4275 95.6282 58.0191 95.6274 57.6902C95.6274 57.3598 96.6889 57.3588 97.1297 57.3588C97.7922 57.3578 98.4469 57.3161 98.4464 56.8225C98.4459 56.4508 98.3555 55.7125 98.355 55.1361C98.3545 54.7236 98.3982 54.394 98.5764 54.394ZM53.9856 47.9489C56.2765 49.098 57.9627 51.0437 57.9642 52.6296C57.9668 55.369 54.8591 56.6408 54.8606 58.3493C54.8627 60.3335 58.1884 60.6494 58.1909 63.1101C58.193 65.1322 55.0407 67.4777 55.0433 70.0974C55.0453 72.1214 56.603 73.786 58.9794 74.0623C58.2018 74.2222 57.5111 74.3419 56.7766 74.3428C52.412 74.3461 47.9166 71.057 47.9129 67.1254C47.9108 65.1804 48.8177 63.4751 50.1968 62.2434C51.4087 63.1946 52.6178 63.8278 53.3964 63.8274C54.0881 63.8264 54.3901 63.5105 54.3896 63.0342C54.3883 61.5629 48.035 60.2208 48.032 57.084C48.0295 54.5432 54.5969 53.1892 54.5941 50.0525C54.5936 49.5361 54.3755 48.6254 53.9856 47.9489ZM37.36 47.9489C36.4472 49.4168 36.2317 51.3327 36.2327 52.5168C36.2395 59.4484 45.1604 65.9249 45.1644 70.2054C45.1659 71.9586 43.8203 73.9188 41.3431 73.9212C39.1671 73.9231 37.9929 72.2906 37.9919 70.9467C37.9908 69.8851 38.7743 69.0684 39.0327 69.0679C39.1625 69.0679 39.2059 69.1497 39.2064 69.4348C39.2069 70.0064 39.6869 70.7408 40.6879 70.7403C41.6015 70.7399 42.208 70.1264 42.207 69.3518C42.2042 65.9679 34.8498 60.0616 34.8419 51.9467C34.451 52.8442 33.973 53.9853 33.975 55.7C33.9786 59.6139 37.0268 63.6901 37.0304 67.3574C37.0319 68.8675 35.7735 70.2132 34.207 70.2146C32.3812 70.2156 31.7273 68.8722 31.7262 68.0153C31.7257 67.4435 31.9867 66.9135 32.1601 66.9135C32.3781 66.913 32.2914 67.7702 33.2927 67.7692C34.3346 67.7683 34.7258 67.0735 34.7248 65.8115C34.7215 62.4281 32.6325 60.0224 32.6297 56.5148C32.6287 55.986 32.6281 55.4147 32.7575 54.8847C31.6271 56.1511 31.4983 57.9445 31.4998 59.5345L31.5036 63.6949C31.5067 66.5048 29.9869 67.7721 28.159 67.774C26.9863 67.7749 25.8098 66.9185 25.8083 65.4104C25.8078 65.2068 25.9386 64.4733 26.2 64.4728C26.5481 64.4724 26.8101 65.3276 27.8103 65.3267C29.7239 65.3255 29.8525 63.5739 29.8494 60.0659C29.8456 56.03 31.6228 51.4181 37.36 47.9489ZM81.3522 47.9489C81.8422 51.4445 86.8782 49.6712 86.8828 53.909C86.8834 54.5271 86.7073 55.4339 86.7078 56.2137C86.7088 57.121 86.7984 57.9028 87.5402 57.9018C88.2904 57.9016 88.4678 57.408 88.4673 56.7481C88.4668 56.0885 88.2878 55.2671 88.2873 54.8146C88.2858 53.3727 89.3911 53.0442 90.0546 53.0442C91.7343 53.0425 93.017 54.6459 95.5365 54.6437C94.9642 57.2779 89.1292 56.5823 89.1323 59.4644C89.1339 60.9062 90.6805 61.2314 91.6977 61.2314C92.6266 61.2304 92.9356 61.1061 92.9351 60.3673C92.9346 59.9548 92.8445 59.5025 92.8445 59.2136C92.8442 59.0492 92.9781 58.8837 93.199 58.8837C94.172 58.8827 98.9369 62.254 98.9379 63.2841C98.9389 64.2288 93.9114 65.1798 92.4531 65.1807C92.0113 65.1812 91.9222 64.8928 91.9222 64.7294C91.9217 64.4414 92.6717 63.5757 92.6712 63.0828C92.6712 62.7126 92.0087 62.4662 90.2397 62.4674C89.4003 62.4683 88.7814 62.5509 88.7819 63.1704C88.7829 64.2785 90.7307 65.6354 90.7317 66.6634C90.7322 67.4869 90.2021 67.9814 88.7865 67.9826C87.5937 67.9836 85.7896 67.1198 85.7881 65.6803C85.7871 64.5285 87.0597 63.376 87.0592 62.6761C87.0592 62.4697 86.8903 62.141 86.3599 62.1413C84.7248 62.1427 84.2863 66.1741 78.5 66.6317C79.4274 65.8509 80.2207 64.9852 80.2191 63.2177C80.2181 62.3529 79.9982 61.6522 79.9972 60.7073C79.9957 59.4723 80.612 58.8532 81.4954 58.8522C83.1285 58.8508 83.9253 60.9902 84.9887 60.9893C85.5651 60.9888 86.1815 60.4964 86.181 59.7552C86.1774 56.6265 79.7281 57.085 79.724 52.6819C79.7225 51.4879 80.1609 50.0067 81.3522 47.9489ZM99.0169 31.9659C99.2336 31.9659 100.146 33.0318 103.094 33.0289C104.611 33.028 105.998 32.6573 108.209 32.6554C113.398 32.6511 115.701 36.0529 118.914 40.3925C120.855 41.5373 125.496 43.3789 125.501 48.5844C125.506 53.1752 120.348 55.7214 119.106 60.6401C121.09 60.435 122.258 57.0712 124.295 57.0693C125.336 57.0684 125.814 57.848 125.815 59.0785C125.817 60.881 124.735 63.5881 122.655 65.2698C122.699 65.1049 122.698 64.9004 122.698 64.6535C122.697 63.5068 122.219 61.8702 120.831 61.8707C118.673 61.8726 117.981 64.0856 116.769 65.9297C115.508 61.7519 113.814 57.9804 110.781 55.688C107.71 53.3549 102.42 54.6287 102.416 50.3671C102.415 49.2177 103.194 47.5787 103.193 46.2669C103.193 45.8164 103.105 45.4061 102.843 45.0779C107.008 46.5518 105.536 49.174 108.099 51.877C109.694 53.5989 114.115 55.2346 116.68 62.3224C116.723 62.118 116.765 61.5867 116.765 61.217C116.759 55.1502 108.268 49.2134 107.53 46.754C112.459 47.2831 113.327 48.4315 115.675 54.5757C116.152 55.8481 117.717 59.0035 117.718 60.5598C118.41 58.5102 119.277 57.0736 120.695 54.8596C119.274 54.1656 115.499 52.6917 115.497 50.2731C115.495 47.4449 119.22 45.2283 119.992 45.2283C120.339 45.2278 120.426 45.5146 120.427 46.0482C120.428 47.5228 119.693 49.9005 119.694 51.1725C119.695 52.3187 120.477 53.4259 121.17 53.4249C121.908 53.4245 123.942 50.9636 123.94 48.545C123.935 44.1984 119.903 42.8919 118.655 42.8928C117.484 42.8943 115.362 44.6989 110.379 44.7025C101.068 44.7106 98.9351 35.9841 98.9315 32.171C98.9315 32.0073 98.9737 31.9659 99.0169 31.9659ZM45.7364 36.9606C46.7925 36.9597 48.7703 38.6784 49.3001 40.4352C49.0802 40.396 48.8604 40.3557 48.6404 40.3562C47.2329 40.3571 46.4464 41.6358 45.3043 43.7942C47.8505 42.2315 50.2218 40.9533 52.9029 40.9509C55.1865 40.9491 56.9911 42.2245 56.9932 44.1835C56.9937 45.0216 56.5546 45.9421 55.9841 46.7395C55.6303 44.9424 54.004 44.1464 51.1923 44.1488C49.5678 44.1502 47.6328 44.4292 46.0961 44.9504C51.0624 45.5868 51.8112 47.2236 51.8125 48.7026C51.8151 51.2202 49.048 52.4602 47.2021 53.3019C47.3771 52.5818 47.5085 51.821 47.508 51.0241C47.5065 49.5042 46.8911 47.7873 44.383 46.1124C43.991 47.7498 42.5868 48.7509 42.5879 50.0277C42.5884 50.5081 42.9381 50.6672 43.2022 50.6672C43.2032 51.3868 42.853 53.4245 42.8535 53.9451C42.8546 55.0221 43.1192 55.2224 43.6908 55.3415C44.0435 56.261 44.0566 57.8022 44.2979 58.629C44.4368 59.0998 44.8349 59.2174 45.1434 59.217C45.4954 60.0153 45.9373 61.2144 46.7732 61.7707C46.9469 61.8909 47.1668 62.1704 47.1673 62.4101C47.1678 63.13 45.9834 63.9309 45.2364 63.9318C45.0166 63.9318 44.6361 63.8083 44.2979 63.0708C44.0223 62.4656 41.8951 61.2575 41.7622 60.5376C41.8941 60.4169 41.9817 60.1772 41.9817 59.8977C41.9807 58.7795 40.0467 57.5017 40.0447 55.745C40.2645 55.6644 40.4843 55.3443 40.4838 54.9841C40.4827 53.9864 39.3371 52.0279 39.3363 50.7112C39.8197 50.7107 40.0839 50.67 40.1269 50.03C40.2132 48.7124 40.5191 46.7523 41.8795 45.6343C41.5721 45.5945 41.1781 45.5547 40.6498 45.5551C38.0133 45.557 33.9281 46.9587 32.3938 50.0766C32.3057 49.5967 32.2608 49.1588 32.2603 48.7595C32.2578 46.1613 33.9694 44.4406 35.2439 43.9223C35.9023 43.6418 36.6929 43.561 37.5727 43.5605C38.9766 43.5591 40.6485 43.8382 42.3614 44.1164C40.8668 42.3184 38.5811 41.0022 36.6909 41.004C35.8134 41.0045 35.1094 41.2852 34.8906 41.9629C34.8022 41.6055 34.7577 41.0052 34.7574 40.605C34.7559 38.6493 35.4581 37.5288 37.3027 37.5274C40.0265 37.525 42.3578 40.4806 43.7663 43.2351L43.7663 43.2331L43.7663 42.8809C43.7686 39.0419 43.8945 37.0796 45.579 36.9658L45.7364 36.9606ZM98.1221 49.9574C99.0885 49.9565 99.8356 50.6236 99.8361 51.4086C99.8371 52.3125 99.0916 52.9426 98.1252 52.9435C97.258 52.944 96.4667 52.315 96.4662 51.4113C96.4651 50.6263 97.2549 49.9579 98.1221 49.9574ZM92.6005 47.172C94.2669 47.1706 95.6296 48.3883 95.6312 49.88C95.6327 51.3721 94.2726 52.5922 92.6061 52.5935C90.9377 52.5949 89.577 51.3772 89.5755 49.8846C89.5739 48.3934 90.932 47.1734 92.6005 47.172ZM87.1991 45.9199C88.165 45.919 88.9565 46.6245 88.9573 47.4895C88.9578 48.3547 88.1685 49.0604 87.2021 49.0609C86.2472 49.0618 85.4559 48.3572 85.4549 47.4922C85.4544 46.6275 86.2441 45.9208 87.1991 45.9199ZM97.9424 44.6928C99.0832 44.6919 100.006 45.5165 100.007 46.5363C100.008 47.5593 99.087 48.3851 97.9462 48.3865C96.8146 48.3874 95.8912 47.5623 95.8902 46.5398C95.8891 45.5195 96.8105 44.6937 97.9424 44.6928ZM11.8288 43.4189C13.1928 45.2787 14.4628 45.8444 16.0958 45.8432C17.3196 45.8422 18.6814 45.5989 20.4507 45.2327C18.1395 47.0146 16.1884 47.9479 14.7377 47.9489C12.8774 47.9503 11.832 46.4933 11.8288 43.4189ZM82.0717 42.6234C83.4303 42.6221 84.5731 43.6437 84.5741 44.86C84.5752 46.0796 83.4349 47.0998 82.0763 47.1012C80.7156 47.1021 79.5764 46.0837 79.5754 44.8642C79.5738 43.6478 80.711 42.6243 82.0717 42.6234ZM92.9464 42.7719C93.9116 42.771 94.7013 43.4776 94.7023 44.3414C94.7034 45.2062 93.9146 45.9146 92.9495 45.9156C91.9836 45.916 91.1938 45.2091 91.1928 44.3442C91.1918 43.4808 91.9805 42.7728 92.9464 42.7719ZM24.5304 39.2394C24.3484 39.7258 24.2134 40.2513 24.214 41.102C24.2155 42.3155 24.6706 43.5301 25.9412 44.6206C25.5779 44.8643 24.9903 45.026 24.1729 45.0269C22.5828 45.0283 21.3133 44.0974 21.3119 42.6411C21.3098 40.6183 23.4848 39.4827 24.5304 39.2394ZM87.7638 39.9482C89.2561 39.9473 90.4435 41.0062 90.445 42.3415C90.4465 43.6787 89.2607 44.7386 87.7689 44.7395C86.2868 44.7409 85.1003 43.6829 85.0988 42.3458C85.0972 41.0108 86.2817 39.9495 87.7638 39.9482ZM28.2921 35.8783C30.563 36.4822 33.3325 38.3835 33.3357 41.0947C33.3372 42.8339 32.295 44.5344 30.0714 44.5361C27.7576 44.538 26.2571 42.7185 26.255 40.5336C26.2526 38.7134 27.2951 36.9308 28.2921 35.8783ZM13.4142 39.8152C14.5033 41.1497 16.3189 41.5511 17.9972 41.5497C18.5417 41.5492 19.132 41.5082 19.6294 41.4279C18.4528 42.765 17.1346 43.3739 16.003 43.3748C14.5054 43.3762 13.3722 42.3237 13.37 40.4217C13.37 40.2202 13.3695 40.0186 13.4142 39.8152ZM97.5852 39.9402C98.5951 39.9392 99.4306 40.6846 99.4314 41.5865C99.4319 42.4917 98.5984 43.2394 97.5883 43.2398C96.5907 43.2408 95.7541 42.4947 95.7536 41.5897C95.7526 40.6874 96.5871 39.9411 97.5852 39.9402ZM108.983 34.8685C108.809 34.8685 108.602 34.9913 108.602 35.4841C108.603 35.9348 108.691 36.2223 108.691 36.7534C108.692 37.2868 108.56 37.6558 108.041 37.6563C106.87 37.6573 105.827 35.0764 104.83 35.0769C104.613 35.0773 104.397 35.2007 104.397 35.4052C104.398 35.8976 105.265 36.7974 105.266 37.2488C105.267 38.2332 102.448 37.7017 102.449 38.5222C102.45 38.8916 102.838 39.0126 103.358 39.0123C104.27 39.0114 105.7 38.6433 106.437 38.6429C106.871 38.6424 107.522 38.7236 107.522 39.2549C107.523 39.829 105.963 40.5672 105.963 41.1009C105.964 41.3468 106.224 41.4673 106.44 41.4673C107.611 41.4665 109.681 39.5403 111.155 39.5388C111.414 39.5388 112.062 39.661 112.063 40.0302C112.063 40.562 110.593 41.505 110.593 42.2836C110.594 42.4892 110.725 42.7351 110.984 42.7351C111.761 42.7346 112.799 40.8084 114.274 40.8069C114.838 40.8064 115.662 41.0103 116.096 41.0098C116.443 41.0098 116.573 40.805 116.573 40.6812C116.572 39.8208 114.272 39.7415 114.054 37.3231C114.01 36.9546 113.88 36.2998 113.402 36.3003C112.622 36.3012 113.231 38.5547 112.364 38.5551C110.373 38.5571 109.719 34.8675 108.983 34.8685ZM82.8103 37.7523C83.7777 37.7514 84.5675 38.4588 84.5685 39.3219C84.5695 40.1857 83.7808 40.8942 82.8134 40.8951C81.8513 40.896 81.06 40.1885 81.059 39.3251C81.0585 38.4618 81.8477 37.7528 82.8103 37.7523ZM92.7636 35.7808C94.2997 35.7794 95.5729 36.9163 95.5744 38.2927C95.5759 39.6671 94.3048 40.8065 92.7687 40.8079C91.2329 40.8092 89.9595 39.671 89.9579 38.2978C89.9567 36.9206 91.2278 35.7822 92.7636 35.7808ZM22.4764 29.3253C22.8389 29.3248 23.2011 29.3387 23.475 29.3647C24.2928 29.4452 24.9434 29.4572 25.1538 29.6469C25.5229 29.9759 25.3025 30.6005 25.8819 31.305C26.4611 32.0127 27.1549 31.9117 27.1559 32.6814C27.1565 33.2891 25.8875 36.8919 22.6217 38.3526C21.0807 39.0393 19.8543 39.3249 18.8118 39.3253C17.0407 39.3267 15.8159 38.6412 14.7282 38.6422C14.5464 38.6422 14.3199 38.7233 13.9556 38.7238C13.5497 38.7238 13.0951 38.3196 13.0946 37.955C13.0946 37.7926 13.1457 37.6333 13.2303 37.509C13.8627 36.5771 13.2796 32.8691 17.2137 30.6256C19.2053 29.4921 20.9799 29.3262 22.4764 29.3253ZM123.665 26.1195C124.857 26.5108 124.735 28.1952 124.737 30.3472C124.741 34.1021 124.335 38.869 123.265 38.9564C121.663 39.0759 115.752 34.0709 115.212 30.355C116.816 30.5099 121.777 29.7627 123.665 26.1195ZM86.9705 35.7462C87.8924 35.7453 88.639 36.4123 88.6395 37.236C88.6405 38.0625 87.8955 38.7318 86.9736 38.7323C86.0608 38.7332 85.3153 38.065 85.3143 37.2388C85.3133 36.4155 86.0583 35.7471 86.9705 35.7462ZM43.3645 21.9766C46.7217 21.974 48.5068 24.7918 48.51 27.9339C48.5105 28.3761 48.4674 28.8594 48.3832 29.3025C49.8248 27.046 51.8212 25.3134 53.9869 25.3115C56.7899 25.3087 58.0656 27.6032 58.0685 30.1813C58.0695 31.3073 57.733 32.9613 57.1804 32.9617C56.6274 32.9622 56.7121 32.0351 56.6254 31.188C56.5405 30.1014 56.3273 29.8598 55.9441 29.8603C55.222 29.8607 54.7584 31.4719 54.7594 32.9634C54.7603 33.8882 54.931 34.936 55.694 34.9355C56.1187 34.9351 56.5016 34.7331 56.7565 34.4915C56.5885 36.3436 55.144 37.9576 53.1068 37.9595C49.3691 37.9628 47.963 33.8144 47.5355 31.3977C45.287 33.6552 43.2087 35.3096 39.4696 35.3127C35.9883 35.315 34.413 32.9002 34.411 30.6049C34.4105 29.9187 34.6639 28.1478 35.5569 28.1469C36.6171 28.1459 35.6872 31.448 37.768 31.4461C38.2786 31.4456 39.2108 31.0412 39.7197 29.7135C40.0164 28.9068 40.1861 28.0626 40.1856 27.3365C40.1846 26.2478 39.9283 25.5656 39.081 25.566C38.3569 25.567 37.4648 26.0895 37.1682 26.3718C38.1863 23.4704 40.6477 21.9789 43.3645 21.9766ZM17.7604 32.4459C17.2619 32.4464 16.5827 33.46 16.5837 34.2677C16.5853 35.7669 18.2202 37.4242 19.7162 37.4233C20.5335 37.4224 21.3966 37.016 21.3961 36.7323C21.3961 36.6516 21.3056 36.611 21.1688 36.5308C19.8059 35.9668 18.3531 34.8336 18.0781 32.8516C18.0326 32.5675 17.9416 32.4455 17.7604 32.4459ZM53.7336 27.9292C52.8415 27.9301 51.3598 31.9179 51.3615 34.0925C51.3625 34.9393 51.5757 35.3021 51.8311 35.3016C52.8913 35.3007 54.0776 31.4322 54.0751 29.0158C54.0746 28.4914 53.9889 27.9292 53.7336 27.9292ZM91.676 25.2941C92.1819 25.9465 92.4785 27.2986 92.4795 27.9129C92.4831 32.3735 89.1181 34.0945 86.0148 34.0971C83.9937 34.099 82.9819 33.4449 82.7287 33.4449C81.9321 33.4459 81.9757 35.0023 81.4284 34.9619C80.4605 34.7992 79.5776 32.7123 79.5754 30.5028C79.5744 29.1915 79.9095 27.8005 80.6627 26.7765C81.7583 27.799 82.7233 28.2477 83.9022 28.2467C84.3672 28.2462 84.9145 28.1238 85.2099 28.1234C85.5868 28.1234 85.8396 28.2851 85.8396 28.5715C85.84 29.0223 85.4199 29.7599 84.916 30.1704C85.4204 30.3746 85.9677 30.4567 86.5572 30.4563C88.9463 30.4539 91.6799 28.9758 91.676 25.2941ZM94.9107 31.9659C95.8316 31.9655 96.5802 32.6341 96.5807 33.4594C96.5817 34.2827 95.8344 34.952 94.9138 34.9525C93.9913 34.9534 93.2453 34.2854 93.2443 33.4622C93.2438 32.6366 93.9883 31.9668 94.9107 31.9659ZM22.296 30.703C21.6168 30.7034 21.118 30.7846 21.1185 31.552C21.1196 32.7671 22.3915 34.9115 23.9806 34.9105C24.7069 34.9096 25.0696 34.1792 25.0691 33.6148C25.0691 33.3311 24.2015 32.8622 23.8875 32.4813C23.3866 31.8741 23.3861 31.0659 22.9778 30.8648C22.7497 30.7428 22.614 30.7025 22.296 30.703ZM30.3297 30.1696C31.3264 30.1687 32.1447 30.8972 32.1458 31.7861C32.1463 32.6772 31.3295 33.4076 30.3328 33.408C29.3343 33.409 28.5156 32.6805 28.5148 31.7894C28.5138 30.9005 29.3306 30.1701 30.3297 30.1696ZM44.0896 23.8684C42.7731 23.8698 40.9541 30.9196 40.9555 32.4911C40.9555 32.7739 41.0405 33.0963 41.4239 33.0958C42.8669 33.0949 44.5141 25.6823 44.5126 24.4325C44.5126 24.1101 44.3873 23.8684 44.0896 23.8684ZM50.3791 29.2206C49.9541 29.221 49.4893 29.7053 48.8102 30.794C48.8969 32.2431 49.1532 32.8878 49.5767 32.8873C50.0425 32.8868 50.7216 31.4752 50.7201 30.0667C50.7191 29.381 50.549 29.2206 50.3791 29.2206ZM46.3007 26.767C45.0248 26.7684 44.3925 29.992 44.3935 30.8383C44.394 31.3188 44.6473 31.7225 44.9014 31.7225C45.3693 31.722 45.9641 31.2378 47.0684 30.0695C47.1531 29.546 47.1526 29.0618 47.1521 28.4569C47.1511 27.653 46.8104 26.7665 46.3007 26.767ZM101.992 19.9787C103.476 19.9775 103.094 21.6492 104.452 21.6482C105.51 21.6472 106.866 20.7676 107.672 20.7667C108.934 20.7657 110.758 24.6943 110.76 26.5332C110.762 28.6653 107.511 29.9641 103.654 29.968C98.0284 29.9729 94.6331 25.1276 94.6302 21.9914C94.6302 21.7406 94.758 21.657 94.8842 21.5732C95.4213 21.2176 97.8077 21.7793 100.892 20.2702C101.272 20.064 101.654 19.9787 101.992 19.9787ZM27.964 26.5275C28.9636 26.527 29.7809 27.256 29.782 28.1463C29.783 29.0355 28.9668 29.7659 27.9677 29.7663C26.9704 29.7668 26.1526 29.0383 26.1515 28.1494C26.1505 27.2583 26.9667 26.5284 27.964 26.5275ZM14.5303 22.6949C14.4845 22.9382 14.4845 23.1397 14.485 23.3835C14.4871 25.69 15.9411 27.4289 18.574 28.1156C18.574 28.1156 17.2582 29.0051 15.6249 29.0065C13.6767 29.0077 12.1307 27.7152 12.1286 25.8943C12.127 24.6394 12.852 23.3441 14.5303 22.6949ZM121.358 19.9787C123.042 20.1735 123.702 21.2678 123.703 22.5994C123.706 25.456 119.804 28.7065 115.539 28.7104C113.939 28.7117 112.828 28.2444 112.827 27.1474C112.827 26.6774 113.237 25.7787 114.593 25.7773C118.333 25.7741 121.772 23.3841 121.769 21.2306C121.769 20.605 121.646 20.3312 121.358 19.9787ZM85.4959 19.9787C88.1798 19.9763 89.2318 21.3659 89.612 21.3659C90.0316 21.3654 90.452 20.955 90.79 20.9545C91.252 20.954 91.2525 21.6504 91.253 22.1429C91.2544 23.7785 90.5005 26.604 88.6068 27.6294C88.2695 26.9335 87.5965 26.1556 86.5097 25.6668C86.216 25.5449 86.0893 25.2993 86.0888 25.0538C86.0886 24.6025 86.5082 24.0284 87.006 23.7818C86.6685 23.2504 85.4136 22.9669 84.8263 22.9674C82.9721 22.9693 81.7134 24.2379 81.4612 25.385C81.2933 24.975 81.1656 24.4844 81.1651 23.9928C81.1637 22.1928 82.4235 19.9816 85.4959 19.9787ZM19.8803 19.9787C22.9667 19.9763 23.9687 22.9306 23.9703 24.8721C23.9713 25.7641 23.7904 26.5711 23.5644 27.2203C20.4327 27.2227 16.8452 25.9314 16.842 22.7338C16.8407 21.2351 18.112 19.9801 19.8803 19.9787ZM17.1487 5.10133e-06C19.3184 -0.00188607 24.9449 0.521965 24.946 1.70515C24.947 3.04948 20.2061 4.39927 20.2071 5.70272C20.2087 7.2536 26.8541 6.34946 26.8556 7.69711C26.8572 9.08209 22.0326 12.1848 22.0331 13.1617C22.0337 13.325 22.2553 13.4058 22.4322 13.4058C23.5825 13.4048 26.5935 11.3646 27.967 11.3631C28.497 11.3626 28.6749 11.689 28.6755 12.2609C28.677 13.401 27.927 15.3177 27.928 16.4982C27.9285 16.7842 28.0176 17.1105 28.3707 17.11C29.3452 17.1091 30.8935 13.2353 32.2652 13.2339C33.5062 13.233 32.4042 19.0631 33.6899 19.0626C34.7955 19.0617 35.0122 13.7623 36.1652 13.7616C37.2708 13.7606 37.806 16.7352 38.9589 16.7338C39.4432 16.7338 39.4879 16.1631 39.4874 15.2262L39.4858 13.8402C39.4848 12.9428 39.5289 12.3331 40.0158 12.3326C41.3462 12.3317 45.1118 16.4025 45.9101 16.4015C46.0878 16.4015 46.1317 16.2382 46.1317 16.1158C46.131 15.017 43.6019 11.3099 43.5999 9.35424C43.5993 8.69966 43.8656 8.25163 44.5746 8.25115C46.1237 8.24973 49.4033 9.91992 50.9077 9.91897C51.3961 9.91849 51.7066 9.75473 51.7061 9.30599C51.7045 7.63508 46.2973 4.25548 46.2957 2.86836C46.2947 1.52356 52.3179 0.133117 56.4359 0.12979C56.9684 0.129314 58.032 0.128364 58.0325 0.657207C58.0335 1.6752 52.922 2.55058 51.6919 3.74541C51.5307 3.90181 51.4277 4.07626 51.4357 4.25144C51.516 6.16692 58.7076 10.6033 58.7102 13.0497C58.7107 13.58 58.2234 13.9878 57.425 13.9883C55.0334 13.9902 49.9816 11.794 48.2529 11.7955C47.7651 11.7959 47.6346 11.9186 47.6351 12.3262C47.6367 13.8749 50.9165 18.7615 50.9183 20.9222C50.9188 21.4936 50.6988 21.9426 50.0805 21.9431C48.0861 21.945 43.652 17.0568 42.1039 17.0582C40.6855 17.0592 41.3097 21.1751 39.9804 21.1765C38.9191 21.177 37.985 18.8137 36.8325 18.8147C35.6817 18.8157 34.936 26.9693 33.1214 26.9712C30.995 26.9727 31.828 19.4305 30.4113 19.4317C29.3036 19.4322 27.8007 22.0018 26.1609 22.0032C25.2758 22.0042 25.01 21.3522 25.009 20.4153C25.008 19.2321 25.4049 17.603 25.4039 16.5415C25.4031 15.9701 25.3584 15.3196 24.7817 15.3205C23.1409 15.3215 17.1672 19.3614 14.8637 19.3633C14.3787 19.3637 14.023 19.1596 14.0228 18.7106C14.0207 16.7134 21.5871 10.7157 21.5863 9.33142C21.5853 8.06576 12.9052 9.21543 12.9042 7.99208C12.9026 6.60639 19.0573 4.19677 19.0563 3.29881C19.0552 2.36234 13.1198 2.04123 13.1188 0.980217C13.1183 0.28666 14.5339 0.00239221 17.1487 5.10133e-06ZM99.1994 23.9105C99.0298 23.9105 98.9449 23.9946 98.9449 24.1191C98.9459 25.2076 100.981 26.8771 104.118 26.8742C105.982 26.8722 107.38 26.0341 107.379 25.532C107.379 25.3675 107.124 25.2415 106.573 25.242C106.022 25.2429 104.921 25.2017 102.844 24.8695C101.063 24.5776 99.7079 23.91 99.1994 23.9105ZM118.821 20.0592C119.715 20.0588 120.003 20.6064 120.003 21.1526C120.005 22.8769 116.359 24.2874 114.632 24.2888C114.058 24.2892 113.235 24.2901 112.782 23.4315C112.411 22.7267 112.534 21.5905 111.836 21.0832C112.534 21.2772 113.273 21.2763 113.848 21.2758C115.699 21.2744 117.465 20.0602 118.821 20.0592ZM51.0467 14.645C52.288 14.6441 57.9176 18.7158 58.7169 19.7348C58.8918 19.9793 58.9806 20.3062 58.9812 20.6296C58.9822 21.8544 58.3213 23.2812 57.4341 23.2822C56.3705 23.2826 50.8266 16.3167 50.8256 14.8906C50.8256 14.7682 50.9124 14.6455 51.0467 14.645ZM120.806 0.99894C122.26 0.997765 122.602 1.60115 124.74 1.59927C123.586 2.24834 123.16 3.42073 123.16 3.98455C123.162 5.68237 124.318 6.8517 124.322 10.3262C124.328 16.7056 118.011 18.9738 110.277 18.9798C108.15 18.9816 105.883 18.8222 103.659 18.5026C103.319 18.4623 103.233 18.3818 103.233 18.1797C103.232 17.6538 106.267 17.3679 106.265 14.7843C106.265 13.7742 105.92 12.8062 105.92 12.443C105.92 12.24 106.09 12.1185 106.263 12.118C106.903 12.1176 108.189 14.4597 110.573 14.4574C111.209 14.4569 112.792 14.2534 112.79 12.3955C112.787 9.52785 105.531 8.80623 105.531 8.16116C105.53 7.6362 109.582 6.74266 111.674 6.70097C108.467 2.827 103.903 3.23444 103.903 2.54839C103.902 2.14283 107.319 1.33149 110.475 1.3289C113.122 1.32654 115.601 1.89036 115.602 3.78884C115.604 4.84018 114.708 5.93225 114.709 7.54694C114.71 8.43624 115.179 9.20213 116.421 9.20119C117.746 9.20001 118.044 7.86747 118.042 6.45203C118.041 5.28247 117.826 4.39246 117.826 3.82723C117.824 2.13129 119.054 1.00036 120.806 0.99894ZM85.8321 0.0515314C86.3637 0.051063 87.4291 1.65614 88.1274 1.6156C89.28 1.61467 91.4502 0.287256 94.4172 0.284444C100.654 0.279289 105.178 3.6919 105.184 9.51915C105.19 15.5449 100.143 18.9664 94.7904 18.9708C91.026 18.9732 88.7631 16.8449 87.9228 16.8458C87.3545 16.8463 86.5173 18.6957 85.9856 18.6962C85.7626 18.6962 85.6739 18.6561 85.5861 18.173C85.4514 17.2507 85.3164 15.6817 84.6054 15.6822C83.985 15.6826 81.464 18.2981 80.6242 18.2986C80.448 18.299 80.4043 18.299 80.4038 18.0971C80.4033 17.2945 82.6125 14.4797 82.6115 13.6366C82.6104 12.7935 79.6009 13.2771 79.6004 12.595C79.5994 11.7503 82.6086 10.8627 82.6076 9.73894C82.6065 8.61304 79.7297 8.45417 79.7287 7.57126C79.7282 7.0888 82.4269 6.40272 82.4261 5.67891C82.4256 4.95745 79.6794 2.14587 79.6786 1.22031C79.6776 0.217194 83.795 2.98472 84.8604 2.98379C85.3256 2.98338 85.3829 1.90764 85.3897 1.34219L85.3905 1.13572C85.3895 0.451512 85.6109 0.0515314 85.8321 0.0515314ZM94.3756 2.17398C91.6727 2.17609 89.9459 3.18108 89.9469 4.1057C89.9474 4.66947 90.4791 4.7489 90.9232 4.74844C91.8087 4.7475 93.9343 3.98268 94.3333 3.98222C94.6422 3.98198 94.8203 4.06142 94.8203 4.26293C94.8208 4.70579 93.8902 5.66977 93.8912 6.23307C93.8917 6.99648 98.7563 6.42943 98.7573 7.23502C98.7578 7.99585 95.179 8.72341 95.1795 9.20563C95.1801 9.72886 98.061 11.4541 98.062 12.3385C98.062 12.5001 97.9748 12.6611 97.6656 12.6616C96.7345 12.6625 94.9612 12.2211 93.766 12.222C93.5005 12.222 93.3675 12.3422 93.3675 12.5037C93.3681 13.1047 94.1219 14.3088 94.1227 15.0336C94.1227 15.2749 93.99 15.3534 93.8132 15.3534C93.1035 15.3544 90.9764 13.9911 90.0027 13.9918C89.6465 13.9923 89.382 14.2329 89.3825 14.5942C89.3833 15.3192 91.4213 16.723 94.5232 16.7202C96.9149 16.7183 101.379 15.2693 101.374 9.48236C101.369 4.90144 98.7522 2.17023 94.3756 2.17398ZM120.001 8.31142C120.004 11.9051 117.238 14.6533 112.236 15.4249C112.793 15.4642 113.306 15.4637 113.819 15.4633C119.665 15.4583 121.802 12.9536 121.8 10.8543C121.798 9.68187 121.113 8.63289 120.001 8.31142ZM16.9366 10.2733C17.5549 10.2729 18.2639 10.3927 18.2639 10.7185C18.2649 11.535 14.9027 14.2674 13.7077 14.2683C13.2652 14.2688 13.1314 13.7806 13.1309 13.3326C13.1304 12.519 13.5276 11.3752 14.015 11.0076C14.5881 10.5184 15.9175 10.2743 16.9366 10.2733ZM87.468 5.1135C87.0337 5.11397 86.9485 7.3646 86.3712 7.36506C85.7064 7.36553 84.8645 7.20526 84.376 7.20596C84.242 7.20596 84.1543 7.24626 84.1543 7.32687C84.1548 7.80863 85.8857 8.65053 85.8863 9.09293C85.8863 9.37411 84.1132 10.5002 84.1137 10.8217C84.1137 10.9019 84.2015 10.9419 84.424 10.9415C84.7352 10.9415 85.7549 10.9811 86.2871 10.9806C86.5095 10.9801 86.5962 11.1416 86.5962 11.3028L86.6881 12.9086C86.6886 13.1098 86.7756 13.2713 86.9085 13.2713C87.3073 13.2708 88.0939 11.6224 88.5817 11.6219C88.9804 11.6219 90.3539 12.185 90.7088 12.1843C90.7965 12.1843 90.8414 12.1435 90.8414 12.0629C90.8412 11.7011 89.909 10.5752 89.909 10.2964C89.909 9.9346 92.4341 9.97279 92.4341 9.57023C92.4335 9.24851 89.9516 8.80799 89.951 8.44644C89.951 8.12379 91.0574 7.03983 91.0569 6.75842C91.0569 6.67711 90.9692 6.63704 90.8807 6.63751C90.436 6.63751 89.3753 7.24205 88.8 7.24252C88.3099 7.24298 87.7772 5.1135 87.468 5.1135ZM31.1887 0.271682C34.1119 0.269309 33.5398 2.55462 35.8436 2.55272C38.0581 2.55106 37.6572 0.347744 40.5357 0.345368C42.3516 0.343941 43.6799 0.587803 43.6804 0.833329C43.681 1.40353 41.5122 1.40543 41.5138 2.67037C41.5145 3.93342 45.4553 4.99039 45.4563 5.96774C45.4569 6.25296 45.1911 6.33472 44.9251 6.33472C44.174 6.33567 42.8 5.76523 41.7824 5.76618C41.0734 5.76714 40.5419 6.09371 40.5424 6.78774C40.5434 7.92814 41.8748 9.68129 41.8754 10.536C41.8759 10.8217 41.6556 11.0256 41.3888 11.0256C40.3247 11.0266 39.1717 7.88845 37.6193 7.88988C35.7158 7.8913 36.2958 12.4172 34.9655 12.418C33.6834 12.4189 35.2276 7.81144 32.8804 7.81334C31.4622 7.81477 29.9588 9.89568 29.0716 9.89663C28.8506 9.89663 28.6295 9.81486 28.6295 9.56934C28.6284 8.75385 31.0198 6.91752 31.0188 5.8981C31.0183 5.36735 30.4418 5.24709 29.8209 5.24804C28.7137 5.24899 27.164 5.65685 26.1888 5.6578C25.7448 5.6578 25.3928 5.5354 25.3928 5.2516C25.3917 4.39523 29.8645 3.98357 29.863 2.55795C29.8615 1.21077 27.7808 1.41708 27.7803 0.926976C27.7798 0.560232 29.4172 0.273588 31.1887 0.271682ZM57.4152 4.12401C58.5687 4.12309 59.1428 4.16373 59.1439 5.38518C59.1449 6.36396 58.9238 7.30328 58.1725 7.30351C56.8873 7.30446 54.0946 5.71556 54.0936 4.98278C54.093 4.49411 55.9549 4.12546 57.4152 4.12401ZM120.807 2.45183C120.209 2.4523 119.74 2.89766 119.741 3.4643C119.741 4.02765 120.211 4.4716 120.809 4.47066C121.408 4.47018 121.878 4.02577 121.878 3.46242C121.877 2.89577 121.406 2.45136 120.807 2.45183Z" fill="white"/>
</svg>
